<?xml version="1.0" encoding="UTF-8" standalone="no"?>
<svg
   version="1.1"
   width="130.45572"
   height="96.87701"
   viewBox="0,0,130.45572,96.87701"
   id="svg282"
   sodipodi:docname="down0.svg"
   inkscape:version="1.1 (c68e22c387, 2021-05-23)"
   xmlns:inkscape="http://www.inkscape.org/namespaces/inkscape"
   xmlns:sodipodi="http://sodipodi.sourceforge.net/DTD/sodipodi-0.dtd"
   xmlns="http://www.w3.org/2000/svg"
   xmlns:svg="http://www.w3.org/2000/svg">
  <defs
     id="defs286" />
  <sodipodi:namedview
     id="namedview284"
     pagecolor="#505050"
     bordercolor="#ffffff"
     borderopacity="1"
     inkscape:pageshadow="0"
     inkscape:pageopacity="0"
     inkscape:pagecheckerboard="1"
     showgrid="false"
     inkscape:zoom="8.5056303"
     inkscape:cx="65.250896"
     inkscape:cy="48.379719"
     inkscape:window-width="2560"
     inkscape:window-height="1009"
     inkscape:window-x="-8"
     inkscape:window-y="-8"
     inkscape:window-maximized="1"
     inkscape:current-layer="svg282" />
  <g
     transform="translate(-198.12924,-79.45821)"
     id="g280">
    <g
       data-paper-data="{&quot;isPaintingLayer&quot;:true}"
       fill-rule="nonzero"
       stroke-miterlimit="10"
       stroke-dasharray=""
       stroke-dashoffset="0"
       style="mix-blend-mode: normal"
       id="g278">
      <g
         stroke-width="1"
         id="g36">
        <g
           id="g32">
          <g
             id="g14">
            <path
               d=""
               fill="#c38f4e"
               stroke="none"
               stroke-linecap="butt"
               stroke-linejoin="miter"
               id="path4" />
            <path
               d=""
               fill="none"
               stroke="#000000"
               stroke-linecap="round"
               stroke-linejoin="round"
               id="path6" />
            <path
               d=""
               fill="none"
               stroke="#000000"
               stroke-linecap="round"
               stroke-linejoin="round"
               id="path8" />
            <path
               d=""
               fill="none"
               stroke="#000000"
               stroke-linecap="round"
               stroke-linejoin="round"
               id="path10" />
            <path
               d=""
               fill="none"
               stroke="#000000"
               stroke-linecap="round"
               stroke-linejoin="round"
               id="path12" />
          </g>
          <g
             stroke-linejoin="miter"
             id="g22">
            <path
               d=""
               fill="#c38f4e"
               stroke="none"
               stroke-linecap="butt"
               id="path16" />
            <path
               d=""
               fill="none"
               stroke="#000000"
               stroke-linecap="round"
               id="path18" />
            <path
               d=""
               fill="none"
               stroke="#000000"
               stroke-linecap="round"
               id="path20" />
          </g>
          <g
             stroke-linejoin="miter"
             id="g30">
            <path
               d=""
               fill="#c38f4e"
               stroke="none"
               stroke-linecap="butt"
               id="path24" />
            <path
               d=""
               fill="none"
               stroke="#000000"
               stroke-linecap="round"
               id="path26" />
            <path
               d=""
               fill="none"
               stroke="#000000"
               stroke-linecap="round"
               id="path28" />
          </g>
        </g>
        <path
           d=""
           fill="#2c96ff"
           stroke="#000000"
           stroke-linecap="round"
           stroke-linejoin="round"
           id="path34" />
      </g>
      <path
         d=""
         fill="#c38f4e"
         stroke="#000000"
         stroke-width="1"
         stroke-linecap="butt"
         stroke-linejoin="miter"
         id="path38" />
      <path
         d="M220.00001,93.21995c0,0 14.03868,-5.40963 20.46121,-5.80724c6.3952,-0.39592 16.70622,3.54531 16.70622,3.54531l-5.89053,32.23612c0,0 -10.12777,-4.47431 -16.18581,-3.97681c-6.25367,0.51357 -19.32557,6.03589 -19.32557,6.03589z"
         data-paper-data="{&quot;index&quot;:null}"
         fill="none"
         stroke="#000000"
         stroke-width="1.5"
         stroke-linecap="round"
         stroke-linejoin="miter"
         id="path40" />
      <path
         d=""
         fill="#c38f4e"
         stroke="#000000"
         stroke-width="1"
         stroke-linecap="round"
         stroke-linejoin="miter"
         id="path42" />
      <g
         stroke-width="1"
         id="g108">
        <g
           stroke-linejoin="miter"
           id="g64">
          <g
             id="g48">
            <path
               d=""
               fill="#c38f4e"
               stroke="none"
               stroke-linecap="butt"
               id="path44" />
            <path
               d=""
               fill="none"
               stroke="#000000"
               stroke-linecap="round"
               id="path46" />
          </g>
          <g
             id="g56">
            <path
               d=""
               fill="#c38f4e"
               stroke="none"
               stroke-linecap="butt"
               id="path50" />
            <path
               d=""
               fill="none"
               stroke="#000000"
               stroke-linecap="round"
               id="path52" />
            <path
               d=""
               fill="none"
               stroke="#000000"
               stroke-linecap="round"
               id="path54" />
          </g>
          <g
             id="g62">
            <path
               d=""
               fill="#c38f4e"
               stroke="none"
               stroke-linecap="butt"
               id="path58" />
            <path
               d=""
               fill="none"
               stroke="#000000"
               stroke-linecap="round"
               id="path60" />
          </g>
        </g>
        <path
           d=""
           fill="#ccd8ff"
           stroke="#000000"
           stroke-linecap="round"
           stroke-linejoin="miter"
           id="path66" />
        <path
           d=""
           fill="#333333"
           stroke="#000000"
           stroke-linecap="round"
           stroke-linejoin="miter"
           id="path68" />
        <g
           id="g106">
          <path
             d=""
             fill="#ba0000"
             stroke="#000000"
             stroke-linecap="round"
             stroke-linejoin="miter"
             id="path70" />
          <path
             d=""
             fill="#7a0000"
             stroke="#000000"
             stroke-linecap="round"
             stroke-linejoin="miter"
             id="path72" />
          <path
             d=""
             fill="#7a0000"
             stroke="#000000"
             stroke-linecap="round"
             stroke-linejoin="miter"
             id="path74" />
          <path
             d=""
             fill="#ffffff"
             stroke="#000000"
             stroke-linecap="round"
             stroke-linejoin="round"
             id="path76" />
          <path
             d=""
             fill="#ffffff"
             stroke="#000000"
             stroke-linecap="round"
             stroke-linejoin="round"
             id="path78" />
          <path
             d=""
             fill="#ffffff"
             stroke="#000000"
             stroke-linecap="round"
             stroke-linejoin="round"
             id="path80" />
          <g
             stroke-linecap="butt"
             stroke-linejoin="miter"
             id="g104">
            <g
               fill="#000000"
               stroke="none"
               id="g94">
              <path
                 d=""
                 id="path82" />
              <path
                 d=""
                 id="path84" />
              <path
                 d=""
                 id="path86" />
              <path
                 d=""
                 id="path88" />
              <path
                 d=""
                 id="path90" />
              <path
                 d=""
                 id="path92" />
            </g>
            <g
               fill="none"
               stroke="#ffffff"
               id="g102">
              <path
                 d=""
                 id="path96" />
              <path
                 d=""
                 id="path98" />
              <path
                 d=""
                 id="path100" />
            </g>
          </g>
        </g>
      </g>
      <g
         stroke-width="1"
         id="g174">
        <g
           stroke-linejoin="miter"
           id="g130">
          <g
             id="g114">
            <path
               d=""
               fill="#c38f4e"
               stroke="none"
               stroke-linecap="butt"
               id="path110" />
            <path
               d=""
               fill="none"
               stroke="#000000"
               stroke-linecap="round"
               id="path112" />
          </g>
          <g
             id="g122">
            <path
               d=""
               fill="#c38f4e"
               stroke="none"
               stroke-linecap="butt"
               id="path116" />
            <path
               d=""
               fill="none"
               stroke="#000000"
               stroke-linecap="round"
               id="path118" />
            <path
               d=""
               fill="none"
               stroke="#000000"
               stroke-linecap="round"
               id="path120" />
          </g>
          <g
             id="g128">
            <path
               d=""
               fill="#c38f4e"
               stroke="none"
               stroke-linecap="butt"
               id="path124" />
            <path
               d=""
               fill="none"
               stroke="#000000"
               stroke-linecap="round"
               id="path126" />
          </g>
        </g>
        <path
           d=""
           fill="#ccd8ff"
           stroke="#000000"
           stroke-linecap="round"
           stroke-linejoin="miter"
           id="path132" />
        <path
           d=""
           fill="#333333"
           stroke="#000000"
           stroke-linecap="round"
           stroke-linejoin="miter"
           id="path134" />
        <g
           id="g172">
          <path
             d=""
             fill="#ba0000"
             stroke="#000000"
             stroke-linecap="round"
             stroke-linejoin="miter"
             id="path136" />
          <path
             d=""
             fill="#7a0000"
             stroke="#000000"
             stroke-linecap="round"
             stroke-linejoin="miter"
             id="path138" />
          <path
             d=""
             fill="#7a0000"
             stroke="#000000"
             stroke-linecap="round"
             stroke-linejoin="miter"
             id="path140" />
          <path
             d=""
             fill="#ffffff"
             stroke="#000000"
             stroke-linecap="round"
             stroke-linejoin="round"
             id="path142" />
          <path
             d=""
             fill="#ffffff"
             stroke="#000000"
             stroke-linecap="round"
             stroke-linejoin="round"
             id="path144" />
          <path
             d=""
             fill="#ffffff"
             stroke="#000000"
             stroke-linecap="round"
             stroke-linejoin="round"
             id="path146" />
          <g
             stroke-linecap="butt"
             stroke-linejoin="miter"
             id="g170">
            <g
               fill="#000000"
               stroke="none"
               id="g160">
              <path
                 d=""
                 id="path148" />
              <path
                 d=""
                 id="path150" />
              <path
                 d=""
                 id="path152" />
              <path
                 d=""
                 id="path154" />
              <path
                 d=""
                 id="path156" />
              <path
                 d=""
                 id="path158" />
            </g>
            <g
               fill="none"
               stroke="#ffffff"
               id="g168">
              <path
                 d=""
                 id="path162" />
              <path
                 d=""
                 id="path164" />
              <path
                 d=""
                 id="path166" />
            </g>
          </g>
        </g>
      </g>
      <g
         stroke="#000000"
         stroke-width="1"
         id="g194">
        <path
           d=""
           fill="#78c2ff"
           stroke-linecap="round"
           stroke-linejoin="round"
           id="path176" />
        <path
           d=""
           fill="#2c96ff"
           stroke-linecap="round"
           stroke-linejoin="round"
           id="path178" />
        <path
           d=""
           fill="#2c96ff"
           stroke-linecap="round"
           stroke-linejoin="round"
           id="path180" />
        <path
           d=""
           fill="none"
           stroke-linecap="round"
           stroke-linejoin="miter"
           id="path182" />
        <path
           d=""
           fill="none"
           stroke-linecap="butt"
           stroke-linejoin="miter"
           id="path184" />
        <path
           d=""
           fill="none"
           stroke-linecap="butt"
           stroke-linejoin="miter"
           id="path186" />
        <path
           d=""
           fill="none"
           stroke-linecap="butt"
           stroke-linejoin="miter"
           id="path188" />
        <path
           d=""
           fill="none"
           stroke-linecap="butt"
           stroke-linejoin="miter"
           id="path190" />
        <path
           d=""
           fill="none"
           stroke-linecap="butt"
           stroke-linejoin="miter"
           id="path192" />
      </g>
      <path
         d="M296.40396,122.42999c0,0 -12.81881,6.42619 -19.24133,6.82379c-6.3952,0.39592 -20.77246,-3.54531 -20.77246,-3.54531l5.89053,-32.23612c0,0 10.12777,4.47431 16.18581,3.97682c6.25367,-0.51356 22.17194,-6.2392 22.17194,-6.2392z"
         data-paper-data="{&quot;index&quot;:null}"
         fill="none"
         stroke="#000000"
         stroke-width="1.5"
         stroke-linecap="round"
         stroke-linejoin="miter"
         id="path196" />
      <path
         d="M214.11211,130.33387c0,0 14.31744,-5.40166 20.86629,-5.79562c6.52098,-0.39229 17.03217,3.5548 17.03217,3.5548l-6.02484,32.23277c0,0 -10.32403,-4.48006 -16.50129,-3.98601c-6.37675,0.51001 -19.7085,6.02492 -19.7085,6.02492z"
         data-paper-data="{&quot;index&quot;:null}"
         fill="none"
         stroke="#000000"
         stroke-width="1.5"
         stroke-linecap="round"
         stroke-linejoin="miter"
         id="path198" />
      <path
         d="M291.23837,158.33338c0,0 -12.81881,6.42619 -19.24133,6.82379c-6.3952,0.39592 -20.77246,-3.54531 -20.77246,-3.54531l5.89053,-32.23612c0,0 10.12777,4.47431 16.18581,3.97681c6.25367,-0.51356 22.17194,-6.2392 22.17194,-6.2392z"
         data-paper-data="{&quot;index&quot;:null}"
         fill="none"
         stroke="#000000"
         stroke-width="1.5"
         stroke-linecap="round"
         stroke-linejoin="miter"
         id="path200" />
      <g
         stroke-width="1"
         id="g234">
        <g
           stroke-linecap="butt"
           stroke-linejoin="miter"
           id="g214">
          <path
             d=""
             fill="#c38f4e"
             stroke="none"
             id="path202" />
          <g
             fill="none"
             stroke="#000000"
             id="g212">
            <path
               d=""
               id="path204" />
            <path
               d=""
               id="path206" />
            <path
               d=""
               id="path208" />
            <path
               d=""
               id="path210" />
          </g>
        </g>
        <g
           stroke-linejoin="miter"
           id="g222">
          <path
             d=""
             fill="#c38f4e"
             stroke="none"
             stroke-linecap="butt"
             id="path216" />
          <path
             d=""
             fill="none"
             stroke="#000000"
             stroke-linecap="round"
             id="path218" />
          <path
             d=""
             fill="none"
             stroke="#000000"
             stroke-linecap="round"
             id="path220" />
        </g>
        <g
           stroke-linejoin="miter"
           id="g230">
          <path
             d=""
             fill="#c38f4e"
             stroke="none"
             stroke-linecap="butt"
             id="path224" />
          <path
             d=""
             fill="none"
             stroke="#000000"
             stroke-linecap="round"
             id="path226" />
          <path
             d=""
             fill="none"
             stroke="#000000"
             stroke-linecap="round"
             id="path228" />
        </g>
        <path
           d=""
           fill="#2c96ff"
           stroke="#000000"
           stroke-linecap="round"
           stroke-linejoin="round"
           id="path232" />
      </g>
      <path
         d="M243.86555,127.03556c0.62418,-4.00169 2.0994,-5.01199 2.0994,-5.01199l15.13763,2.94212c0,0 1.11975,0.62752 0.67983,3.44792c-1.01946,6.53582 -5.85671,11.52566 -10.80432,11.14512c-4.94759,-0.38054 -8.13198,-5.98734 -7.11252,-12.52317z"
         fill="#ffffff"
         stroke="#000000"
         stroke-width="1"
         stroke-linecap="butt"
         stroke-linejoin="miter"
         id="path236" />
      <path
         d="M265.47555,129.02493c0.57607,-2.56087 1.96395,-3.97461 1.96395,-3.97461l14.90059,0.46778c0,0 1.7765,2.2702 0.92105,6.07303c-1.45174,6.45357 -6.61004,11.11077 -11.5214,10.40212c-4.91134,-0.70864 -7.71593,-6.51476 -6.26418,-12.96834z"
         fill="#ffffff"
         stroke="#000000"
         stroke-width="1"
         stroke-linecap="butt"
         stroke-linejoin="miter"
         id="path238" />
      <path
         d="M256.38088,143.90066c0,0 0.97734,2.45183 6.60812,3.38542c3.49822,0.57999 4.51044,-0.10175 5.03341,-0.15818c1.54459,-0.16666 5.96743,-2.4609 5.96743,-2.4609c0,0 -1.90466,4.39185 -5.57248,7.12535c-2.37579,1.7706 -6.08195,0.77954 -7.37957,-1.29189c-3.30091,-5.2694 -4.65692,-6.5998 -4.65692,-6.5998z"
         fill="#ff4444"
         stroke="#000000"
         stroke-width="1"
         stroke-linecap="butt"
         stroke-linejoin="miter"
         id="path240" />
      <path
         d="M305.50388,151.08294c2.50582,6.8047 -0.86962,14.2805 -7.53926,16.69775c-6.6696,2.41722 -14.10773,-1.13947 -16.61355,-7.94416c-2.5058,-6.80467 0.86961,-14.2805 7.53922,-16.69773c6.66965,-2.41724 14.1078,1.13948 16.6136,7.94414z"
         fill="#465e85"
         stroke="#000000"
         stroke-width="1.5"
         stroke-linecap="butt"
         stroke-linejoin="miter"
         id="path242" />
      <path
         d="M307.6798,156.06921c0.03771,0.10235 -1.28615,3.75698 -2.87622,6.50683c-1.40648,2.43241 -3.09731,4.01141 -3.13281,3.915c-0.03979,-0.10806 -2.23501,1.52959 -2.51111,0.67013c-0.21114,-0.65738 0.01253,-3.81465 0.1352,-4.70991c0.11313,-0.82523 0.46068,-2.00575 0.98023,-3.03498c0.41396,-0.81999 1.22952,-2.24639 2.54884,-3.35345c1.53767,-1.29025 3.18038,-2.20619 3.43935,-2.23553c1.63283,-0.18491 1.30323,1.9343 1.41651,2.24191z"
         fill="#0d1522"
         stroke="#000000"
         stroke-width="1.5"
         stroke-linecap="butt"
         stroke-linejoin="miter"
         id="path244" />
      <path
         d="M288.4471,152.90888c0.45272,0.46662 0.34019,1.31076 -0.25132,1.88544c-0.59152,0.57467 -1.43802,0.66226 -1.89073,0.19565c-0.45272,-0.46662 -0.34019,-1.31076 0.25132,-1.88543c0.59152,-0.57467 1.43803,-0.66227 1.89075,-0.19565z"
         fill="#6283b8"
         stroke="none"
         stroke-width="1.5"
         stroke-linecap="butt"
         stroke-linejoin="miter"
         id="path246" />
      <path
         d="M284.43471,152.48048c0.61103,0.49239 0.57422,1.5551 -0.08221,2.3736c-0.65642,0.81851 -1.68389,1.08286 -2.29493,0.59047c-0.61103,-0.49239 -0.57423,-1.55509 0.08219,-2.3736c0.65642,-0.81851 1.68391,-1.08286 2.29494,-0.59047z"
         fill="#6283b8"
         stroke="none"
         stroke-width="1.5"
         stroke-linecap="butt"
         stroke-linejoin="miter"
         id="path248" />
      <path
         d="M289.41195,167.9137c0,0 -3.38658,-0.89566 -4.71188,-2.05231c-1.3031,-1.13727 -3.17444,-4.83044 -3.17444,-4.83044c0,0 6.49411,-1.99666 9.79702,-3.59588c3.72187,-1.80207 11.42778,-6.68083 11.42778,-6.68083c0,0 1.13684,0.50268 0.84239,1.33693c-0.91256,2.58547 -7.03767,16.21558 -7.03767,16.21558z"
         fill="#313243"
         stroke="none"
         stroke-width="1.5"
         stroke-linecap="butt"
         stroke-linejoin="miter"
         id="path250" />
      <path
         d="M282.76149,148.45656c0,0 5.61024,2.07016 8.0803,3.54605c2.49981,1.49366 6.83028,5.36321 6.83028,5.36321"
         fill="none"
         stroke="#000000"
         stroke-width="1.5"
         stroke-linecap="round"
         stroke-linejoin="miter"
         id="path252" />
      <path
         d="M296.54031,160.16153c0,0 -5.04555,-0.73932 -7.62204,-2.12724c-2.6429,-1.4237 -8.04118,-6.31043 -8.04118,-6.31043"
         fill="none"
         stroke="#000000"
         stroke-width="1.5"
         stroke-linecap="round"
         stroke-linejoin="miter"
         id="path254" />
      <path
         d="M327.31368,166.76877c1.50663,3.25027 -0.43174,6.7457 -3.51891,8.54777c-3.08722,1.80211 -22.54146,-5.93181 -24.04807,-9.18204c-1.50658,-3.25031 1.42532,-9.09672 4.5125,-10.89879c3.08717,-1.80207 21.54787,8.28284 23.05448,11.53307z"
         fill="#465e85"
         stroke="#000000"
         stroke-width="1.5"
         stroke-linecap="butt"
         stroke-linejoin="miter"
         id="path256" />
      <path
         d="M296.15504,162.18972c0,0 -3.94822,0.52743 -6.36754,-0.00569c-2.5741,-0.56723 -8.64143,-3.3017 -8.64143,-3.3017"
         fill="none"
         stroke="#000000"
         stroke-width="1.5"
         stroke-linecap="round"
         stroke-linejoin="miter"
         id="path258" />
      <path
         d="M295.87277,164.77694c0,0 -3.56369,1.05817 -5.49897,1.00928c-2.07219,-0.05231 -6.55159,-1.31353 -6.55159,-1.31353"
         fill="none"
         stroke="#000000"
         stroke-width="1.5"
         stroke-linecap="round"
         stroke-linejoin="miter"
         id="path260" />
      <path
         d="M293.80075,167.81404c0,0 -1.1001,-2.91787 -1.24444,-5.92828c-0.12217,-2.54777 0.63145,-5.11832 1.34203,-6.49129c0.494,-0.95457 1.75726,-2.45593 2.99769,-3.29055c2.85877,-1.92364 6.46571,-2.76398 6.46571,-2.76398"
         fill="none"
         stroke="#000000"
         stroke-width="1.5"
         stroke-linecap="round"
         stroke-linejoin="miter"
         id="path262" />
      <path
         d="M288.07808,166.80677c0,0 -0.89066,-2.16759 -1.16773,-4.89046c-0.34361,-3.37723 -0.02246,-7.61447 0.81761,-9.6983c0.62781,-1.5574 2.15554,-3.64322 3.94184,-5.05136c2.61779,-2.06368 5.60566,-3.1751 5.60566,-3.1751"
         fill="none"
         stroke="#000000"
         stroke-width="1.5"
         stroke-linecap="round"
         stroke-linejoin="miter"
         id="path264" />
      <path
         d="M281.60425,160.40605c0,0 1.50933,-6.65915 3.41128,-10.5797c1.90191,-3.92051 5.01374,-6.78694 5.01374,-6.78694"
         fill="none"
         stroke="#000000"
         stroke-width="1.5"
         stroke-linecap="round"
         stroke-linejoin="miter"
         id="path266" />
      <path
         d="M306.55373,154.09535c0.0993,0.26968 -3.35853,0.69521 -5.52836,4.06363c-2.31135,3.58809 -1.51588,10.34507 -1.62164,10.05779c-0.05567,-0.15107 -2.76948,2.01016 -3.16075,0.80993c-0.29925,-0.91787 -0.16302,-5.26966 -0.04903,-6.50092c0.10509,-1.13501 0.49149,-2.74994 1.10372,-4.14794c0.48771,-1.11381 1.45758,-3.04687 3.08281,-4.51546c1.8943,-1.71164 3.9396,-2.90133 4.26734,-2.92988c2.06709,-0.18003 1.7475,2.73262 1.90591,3.16285z"
         fill="#465e85"
         stroke="#000000"
         stroke-width="1.5"
         stroke-linecap="butt"
         stroke-linejoin="miter"
         id="path268" />
      <path
         d="M295.98051,168.35338c-6.15718,1.24868 -12.71078,-2.18865 -14.99266,-8.38524c-2.5058,-6.80467 1.23283,-14.41212 7.90244,-16.82935c6.25642,-2.26748 13.38279,1.24787 16.28616,7.24354c0.10389,0.21456 -5.28097,2.27163 -7.61698,7.15462c-1.97577,4.12999 -1.30205,10.76024 -1.57892,10.8164z"
         fill="none"
         stroke="#000000"
         stroke-width="1.5"
         stroke-linecap="butt"
         stroke-linejoin="miter"
         id="path270" />
      <path
         d="M287.27905,144.23495c0,0 5.91909,2.024 7.8967,3.60986c2.05972,1.65181 4.22529,6.11123 4.22529,6.11123"
         fill="none"
         stroke="#000000"
         stroke-width="1.5"
         stroke-linecap="round"
         stroke-linejoin="miter"
         id="path272" />
      <path
         d="M298.24805,162.65946c0.46235,0.17946 0.64488,0.83622 0.40768,1.4669c-0.23719,0.63068 -0.80428,0.99647 -1.26663,0.817c-0.46235,-0.17947 -0.64487,-0.83622 -0.40768,-1.46691c0.23719,-0.63069 0.80429,-0.99646 1.26663,-0.817z"
         fill="#6283b8"
         stroke="none"
         stroke-width="1.5"
         stroke-linecap="butt"
         stroke-linejoin="miter"
         id="path274" />
      <path
         d="M299.10423,158.20296c0.55694,-0.06686 0.78181,0.5078 0.5023,1.28352c-0.27952,0.77571 -0.9576,1.45876 -1.51453,1.52561c-0.55694,0.06686 -0.78182,-0.50779 -0.5023,-1.2835c0.27952,-0.77571 0.9576,-1.45876 1.51453,-1.52561z"
         fill="#6283b8"
         stroke="none"
         stroke-width="1.5"
         stroke-linecap="butt"
         stroke-linejoin="miter"
         id="path276" />
    </g>
  </g>
</svg>
