<?xml version="1.0" encoding="UTF-8" standalone="no"?>
<svg
   version="1.1"
   width="115.63509"
   height="103.92375"
   viewBox="0,0,115.63509,103.92375"
   id="svg282"
   sodipodi:docname="left0.svg"
   inkscape:version="1.1 (c68e22c387, 2021-05-23)"
   xmlns:inkscape="http://www.inkscape.org/namespaces/inkscape"
   xmlns:sodipodi="http://sodipodi.sourceforge.net/DTD/sodipodi-0.dtd"
   xmlns="http://www.w3.org/2000/svg"
   xmlns:svg="http://www.w3.org/2000/svg">
  <defs
     id="defs286" />
  <sodipodi:namedview
     id="namedview284"
     pagecolor="#505050"
     bordercolor="#ffffff"
     borderopacity="1"
     inkscape:pageshadow="0"
     inkscape:pageopacity="0"
     inkscape:pagecheckerboard="1"
     showgrid="false"
     inkscape:zoom="7.92889"
     inkscape:cx="57.763445"
     inkscape:cy="52.024936"
     inkscape:window-width="2560"
     inkscape:window-height="1009"
     inkscape:window-x="-8"
     inkscape:window-y="-8"
     inkscape:window-maximized="1"
     inkscape:current-layer="svg282" />
  <g
     transform="translate(-202.09484,-75.48288)"
     id="g280">
    <g
       data-paper-data="{&quot;isPaintingLayer&quot;:true}"
       fill-rule="nonzero"
       stroke-miterlimit="10"
       stroke-dasharray=""
       stroke-dashoffset="0"
       style="mix-blend-mode: normal"
       id="g278">
      <g
         stroke-width="1"
         id="g36">
        <g
           id="g32">
          <g
             id="g14">
            <path
               d=""
               fill="#c38f4e"
               stroke="none"
               stroke-linecap="butt"
               stroke-linejoin="miter"
               id="path4" />
            <path
               d=""
               fill="none"
               stroke="#000000"
               stroke-linecap="round"
               stroke-linejoin="round"
               id="path6" />
            <path
               d=""
               fill="none"
               stroke="#000000"
               stroke-linecap="round"
               stroke-linejoin="round"
               id="path8" />
            <path
               d=""
               fill="none"
               stroke="#000000"
               stroke-linecap="round"
               stroke-linejoin="round"
               id="path10" />
            <path
               d=""
               fill="none"
               stroke="#000000"
               stroke-linecap="round"
               stroke-linejoin="round"
               id="path12" />
          </g>
          <g
             stroke-linejoin="miter"
             id="g22">
            <path
               d=""
               fill="#c38f4e"
               stroke="none"
               stroke-linecap="butt"
               id="path16" />
            <path
               d=""
               fill="none"
               stroke="#000000"
               stroke-linecap="round"
               id="path18" />
            <path
               d=""
               fill="none"
               stroke="#000000"
               stroke-linecap="round"
               id="path20" />
          </g>
          <g
             stroke-linejoin="miter"
             id="g30">
            <path
               d=""
               fill="#c38f4e"
               stroke="none"
               stroke-linecap="butt"
               id="path24" />
            <path
               d=""
               fill="none"
               stroke="#000000"
               stroke-linecap="round"
               id="path26" />
            <path
               d=""
               fill="none"
               stroke="#000000"
               stroke-linecap="round"
               id="path28" />
          </g>
        </g>
        <path
           d=""
           fill="#2c96ff"
           stroke="#000000"
           stroke-linecap="round"
           stroke-linejoin="round"
           id="path34" />
      </g>
      <path
         d="M295.34636,163.29383c0,0 -13.87113,7.10483 -20.60721,7.53095c-6.70742,0.42431 -19.72366,-4.97966 -19.72366,-4.97966l5.41056,-33.3673c0,0 13.04016,2.48312 19.39396,1.94996c6.55899,-0.55039 19.95369,-7.29783 19.95369,-7.29783z"
         data-paper-data="{&quot;index&quot;:null}"
         fill="none"
         stroke="#000000"
         stroke-width="1.5"
         stroke-linecap="round"
         stroke-linejoin="miter"
         id="path38" />
      <path
         d=""
         fill="#c38f4e"
         stroke="#000000"
         stroke-width="1"
         stroke-linecap="butt"
         stroke-linejoin="miter"
         id="path40" />
      <path
         d=""
         fill="#c38f4e"
         stroke="#000000"
         stroke-width="1"
         stroke-linecap="round"
         stroke-linejoin="miter"
         id="path42" />
      <g
         stroke-width="1"
         id="g108">
        <g
           stroke-linejoin="miter"
           id="g64">
          <g
             id="g48">
            <path
               d=""
               fill="#c38f4e"
               stroke="none"
               stroke-linecap="butt"
               id="path44" />
            <path
               d=""
               fill="none"
               stroke="#000000"
               stroke-linecap="round"
               id="path46" />
          </g>
          <g
             id="g56">
            <path
               d=""
               fill="#c38f4e"
               stroke="none"
               stroke-linecap="butt"
               id="path50" />
            <path
               d=""
               fill="none"
               stroke="#000000"
               stroke-linecap="round"
               id="path52" />
            <path
               d=""
               fill="none"
               stroke="#000000"
               stroke-linecap="round"
               id="path54" />
          </g>
          <g
             id="g62">
            <path
               d=""
               fill="#c38f4e"
               stroke="none"
               stroke-linecap="butt"
               id="path58" />
            <path
               d=""
               fill="none"
               stroke="#000000"
               stroke-linecap="round"
               id="path60" />
          </g>
        </g>
        <path
           d=""
           fill="#ccd8ff"
           stroke="#000000"
           stroke-linecap="round"
           stroke-linejoin="miter"
           id="path66" />
        <path
           d=""
           fill="#333333"
           stroke="#000000"
           stroke-linecap="round"
           stroke-linejoin="miter"
           id="path68" />
        <g
           id="g106">
          <path
             d=""
             fill="#ba0000"
             stroke="#000000"
             stroke-linecap="round"
             stroke-linejoin="miter"
             id="path70" />
          <path
             d=""
             fill="#7a0000"
             stroke="#000000"
             stroke-linecap="round"
             stroke-linejoin="miter"
             id="path72" />
          <path
             d=""
             fill="#7a0000"
             stroke="#000000"
             stroke-linecap="round"
             stroke-linejoin="miter"
             id="path74" />
          <path
             d=""
             fill="#ffffff"
             stroke="#000000"
             stroke-linecap="round"
             stroke-linejoin="round"
             id="path76" />
          <path
             d=""
             fill="#ffffff"
             stroke="#000000"
             stroke-linecap="round"
             stroke-linejoin="round"
             id="path78" />
          <path
             d=""
             fill="#ffffff"
             stroke="#000000"
             stroke-linecap="round"
             stroke-linejoin="round"
             id="path80" />
          <g
             stroke-linecap="butt"
             stroke-linejoin="miter"
             id="g104">
            <g
               fill="#000000"
               stroke="none"
               id="g94">
              <path
                 d=""
                 id="path82" />
              <path
                 d=""
                 id="path84" />
              <path
                 d=""
                 id="path86" />
              <path
                 d=""
                 id="path88" />
              <path
                 d=""
                 id="path90" />
              <path
                 d=""
                 id="path92" />
            </g>
            <g
               fill="none"
               stroke="#ffffff"
               id="g102">
              <path
                 d=""
                 id="path96" />
              <path
                 d=""
                 id="path98" />
              <path
                 d=""
                 id="path100" />
            </g>
          </g>
        </g>
      </g>
      <g
         stroke-width="1"
         id="g174">
        <g
           stroke-linejoin="miter"
           id="g130">
          <g
             id="g114">
            <path
               d=""
               fill="#c38f4e"
               stroke="none"
               stroke-linecap="butt"
               id="path110" />
            <path
               d=""
               fill="none"
               stroke="#000000"
               stroke-linecap="round"
               id="path112" />
          </g>
          <g
             id="g122">
            <path
               d=""
               fill="#c38f4e"
               stroke="none"
               stroke-linecap="butt"
               id="path116" />
            <path
               d=""
               fill="none"
               stroke="#000000"
               stroke-linecap="round"
               id="path118" />
            <path
               d=""
               fill="none"
               stroke="#000000"
               stroke-linecap="round"
               id="path120" />
          </g>
          <g
             id="g128">
            <path
               d=""
               fill="#c38f4e"
               stroke="none"
               stroke-linecap="butt"
               id="path124" />
            <path
               d=""
               fill="none"
               stroke="#000000"
               stroke-linecap="round"
               id="path126" />
          </g>
        </g>
        <path
           d=""
           fill="#ccd8ff"
           stroke="#000000"
           stroke-linecap="round"
           stroke-linejoin="miter"
           id="path132" />
        <path
           d=""
           fill="#333333"
           stroke="#000000"
           stroke-linecap="round"
           stroke-linejoin="miter"
           id="path134" />
        <g
           id="g172">
          <path
             d=""
             fill="#ba0000"
             stroke="#000000"
             stroke-linecap="round"
             stroke-linejoin="miter"
             id="path136" />
          <path
             d=""
             fill="#7a0000"
             stroke="#000000"
             stroke-linecap="round"
             stroke-linejoin="miter"
             id="path138" />
          <path
             d=""
             fill="#7a0000"
             stroke="#000000"
             stroke-linecap="round"
             stroke-linejoin="miter"
             id="path140" />
          <path
             d=""
             fill="#ffffff"
             stroke="#000000"
             stroke-linecap="round"
             stroke-linejoin="round"
             id="path142" />
          <path
             d=""
             fill="#ffffff"
             stroke="#000000"
             stroke-linecap="round"
             stroke-linejoin="round"
             id="path144" />
          <path
             d=""
             fill="#ffffff"
             stroke="#000000"
             stroke-linecap="round"
             stroke-linejoin="round"
             id="path146" />
          <g
             stroke-linecap="butt"
             stroke-linejoin="miter"
             id="g170">
            <g
               fill="#000000"
               stroke="none"
               id="g160">
              <path
                 d=""
                 id="path148" />
              <path
                 d=""
                 id="path150" />
              <path
                 d=""
                 id="path152" />
              <path
                 d=""
                 id="path154" />
              <path
                 d=""
                 id="path156" />
              <path
                 d=""
                 id="path158" />
            </g>
            <g
               fill="none"
               stroke="#ffffff"
               id="g168">
              <path
                 d=""
                 id="path162" />
              <path
                 d=""
                 id="path164" />
              <path
                 d=""
                 id="path166" />
            </g>
          </g>
        </g>
      </g>
      <g
         stroke="#000000"
         stroke-width="1"
         id="g194">
        <path
           d=""
           fill="#78c2ff"
           stroke-linecap="round"
           stroke-linejoin="round"
           id="path176" />
        <path
           d=""
           fill="#2c96ff"
           stroke-linecap="round"
           stroke-linejoin="round"
           id="path178" />
        <path
           d=""
           fill="#2c96ff"
           stroke-linecap="round"
           stroke-linejoin="round"
           id="path180" />
        <path
           d=""
           fill="none"
           stroke-linecap="round"
           stroke-linejoin="miter"
           id="path182" />
        <path
           d=""
           fill="none"
           stroke-linecap="butt"
           stroke-linejoin="miter"
           id="path184" />
        <path
           d=""
           fill="none"
           stroke-linecap="butt"
           stroke-linejoin="miter"
           id="path186" />
        <path
           d=""
           fill="none"
           stroke-linecap="butt"
           stroke-linejoin="miter"
           id="path188" />
        <path
           d=""
           fill="none"
           stroke-linecap="butt"
           stroke-linejoin="miter"
           id="path190" />
        <path
           d=""
           fill="none"
           stroke-linecap="butt"
           stroke-linejoin="miter"
           id="path192" />
      </g>
      <path
         d="M223.01539,92.04351c0,0 13.87114,-7.10484 20.60721,-7.53095c6.70742,-0.42431 18.15012,4.97967 18.15012,4.97967l-5.01717,35.33422c0,0 -11.86001,-4.45004 -18.21381,-3.91688c-6.55899,0.55039 -19.95368,7.29783 -19.95368,7.29783z"
         fill="none"
         stroke="#000000"
         stroke-width="1.5"
         stroke-linecap="round"
         stroke-linejoin="miter"
         id="path196" />
      <g
         stroke-width="1"
         id="g230">
        <g
           stroke-linecap="butt"
           stroke-linejoin="miter"
           id="g210">
          <path
             d=""
             fill="#c38f4e"
             stroke="none"
             id="path198" />
          <g
             fill="none"
             stroke="#000000"
             id="g208">
            <path
               d=""
               id="path200" />
            <path
               d=""
               id="path202" />
            <path
               d=""
               id="path204" />
            <path
               d=""
               id="path206" />
          </g>
        </g>
        <g
           stroke-linejoin="miter"
           id="g218">
          <path
             d=""
             fill="#c38f4e"
             stroke="none"
             stroke-linecap="butt"
             id="path212" />
          <path
             d=""
             fill="none"
             stroke="#000000"
             stroke-linecap="round"
             id="path214" />
          <path
             d=""
             fill="none"
             stroke="#000000"
             stroke-linecap="round"
             id="path216" />
        </g>
        <g
           stroke-linejoin="miter"
           id="g226">
          <path
             d=""
             fill="#c38f4e"
             stroke="none"
             stroke-linecap="butt"
             id="path220" />
          <path
             d=""
             fill="none"
             stroke="#000000"
             stroke-linecap="round"
             id="path222" />
          <path
             d=""
             fill="none"
             stroke="#000000"
             stroke-linecap="round"
             id="path224" />
        </g>
        <path
           d=""
           fill="#2c96ff"
           stroke="#000000"
           stroke-linecap="round"
           stroke-linejoin="round"
           id="path228" />
      </g>
      <path
         d="M242.35685,105.06944c0.7245,-4.51629 2.22904,-5.56042 2.22904,-5.56042l15.11112,4.4578c0,0 1.10771,0.79701 0.59708,3.9801c-1.18331,7.37629 -6.15795,12.71181 -11.11118,11.91721c-4.95322,-0.7946 -8.00935,-7.4184 -6.82604,-14.7947z"
         fill="#ffffff"
         stroke="#000000"
         stroke-width="1"
         stroke-linecap="butt"
         stroke-linejoin="miter"
         id="path232" />
      <path
         d="M264.30053,109.28996c0.87502,-2.83236 2.42044,-4.24891 2.42044,-4.24891l14.74067,2.57997c0,0 1.49542,2.82525 0.19603,7.03124c-2.20513,7.13774 -7.87826,11.72363 -12.6713,10.24287c-4.79303,-1.48076 -6.89096,-8.46743 -4.68583,-15.60517z"
         fill="#ffffff"
         stroke="#000000"
         stroke-width="1"
         stroke-linecap="butt"
         stroke-linejoin="miter"
         id="path234" />
      <path
         d="M257.32339,129.74239c0,0 1.37778,2.63459 7.10441,2.8681c3.55777,0.14506 4.44481,-0.77543 4.95269,-0.9159c1.50002,-0.41488 5.49068,-3.66132 5.49068,-3.66132c0,0 -1.148,5.25423 -4.31814,8.8878c-2.05343,2.35361 -5.88579,1.7733 -7.51664,-0.38347c-4.1486,-5.48649 -5.713,-6.79521 -5.713,-6.79521z"
         fill="#ff4444"
         stroke="#000000"
         stroke-width="1"
         stroke-linecap="butt"
         stroke-linejoin="miter"
         id="path236" />
      <path
         d="M304.02899,144.25446c-0.66096,7.14485 -6.91963,12.40743 -13.97917,11.75436c-7.05949,-0.65307 -12.24652,-6.97447 -11.58556,-14.11932c0.66097,-7.14481 6.91963,-12.40743 13.97912,-11.75436c7.05954,0.65307 12.24658,6.97451 11.58561,14.11932z"
         fill="#465e85"
         stroke="#000000"
         stroke-width="1.5"
         stroke-linecap="butt"
         stroke-linejoin="miter"
         id="path238" />
      <path
         d="M303.85135,149.6334c-0.00992,0.10747 -2.775,2.81787 -5.39174,4.60652c-2.31464,1.58219 -4.51936,2.28094 -4.50999,2.17971c0.0105,-0.11346 -2.67477,0.42484 -2.55482,-0.46053c0.09179,-0.67718 1.65,-3.40707 2.14532,-4.15614c0.45663,-0.69045 1.27751,-1.59977 2.18867,-2.30115c0.72596,-0.55878 2.07497,-1.49048 3.74158,-1.92388c1.94242,-0.5051 3.81888,-0.63102 4.06527,-0.54795c1.5535,0.52384 0.34559,2.28043 0.31571,2.60342z"
         fill="#0d1522"
         stroke="#000000"
         stroke-width="1.5"
         stroke-linecap="butt"
         stroke-linejoin="miter"
         id="path240" />
      <path
         d="M287.84629,138.68782c0.20825,0.60851 -0.25596,1.31613 -1.03683,1.58051c-0.78087,0.26438 -1.58269,-0.01459 -1.79094,-0.6231c-0.20825,-0.60851 0.25596,-1.31613 1.03682,-1.58051c0.78087,-0.26438 1.5827,0.01459 1.79095,0.62311z"
         fill="#6283b8"
         stroke="none"
         stroke-width="1.5"
         stroke-linecap="butt"
         stroke-linejoin="miter"
         id="path242" />
      <path
         d="M284.40805,136.6109c0.3401,0.6984 -0.14965,1.63349 -1.09386,2.08859c-0.94421,0.4551 -1.98534,0.25786 -2.32544,-0.44054c-0.3401,-0.6984 0.14963,-1.63349 1.09384,-2.08859c0.94421,-0.4551 1.98535,-0.25786 2.32545,0.44054z"
         fill="#6283b8"
         stroke="none"
         stroke-width="1.5"
         stroke-linecap="butt"
         stroke-linejoin="miter"
         id="path244" />
      <path
         d="M282.2716,152.51755c0,0 -2.67254,-2.23075 -3.37211,-3.82486c-0.68785,-1.5674 -0.79074,-5.66103 -0.79074,-5.66103c0,0 6.7204,0.9552 10.38914,0.91886c4.13411,-0.04095 13.18657,-1.15238 13.18657,-1.15238c0,0 0.81037,0.92955 0.18617,1.55153c-1.93449,1.9276 -13.31922,11.53478 -13.31922,11.53478z"
         fill="#313243"
         stroke="none"
         stroke-width="1.5"
         stroke-linecap="butt"
         stroke-linejoin="miter"
         id="path246" />
      <path
         d="M284.62611,132.30502c0,0 4.17546,4.22005 5.77134,6.58296c1.61511,2.39136 3.86225,7.68082 3.86225,7.68082"
         fill="none"
         stroke="#000000"
         stroke-width="1.5"
         stroke-linecap="round"
         stroke-linejoin="miter"
         id="path248" />
      <path
         d="M292.03701,148.59194c0,0 -4.23737,-2.79119 -5.96713,-5.12033c-1.77434,-2.38918 -4.54851,-9.0393 -4.54851,-9.0393"
         fill="none"
         stroke="#000000"
         stroke-width="1.5"
         stroke-linecap="round"
         stroke-linejoin="miter"
         id="path250" />
      <path
         d="M316.97993,167.49248c-0.0361,3.54349 -3.28755,5.85207 -6.84868,6.16094c-3.56119,0.30888 -17.80155,-14.82148 -17.76545,-18.36492c0.03616,-3.5435 5.19447,-7.53574 8.75561,-7.84461c3.56113,-0.30887 15.89462,16.50515 15.85852,20.04859z"
         fill="#465e85"
         stroke="#000000"
         stroke-width="1.5"
         stroke-linecap="butt"
         stroke-linejoin="miter"
         id="path252" />
      <path
         d="M290.81795,150.24362c0,0 -3.7909,-1.19482 -5.74597,-2.69296c-2.08015,-1.59399 -6.38288,-6.60124 -6.38288,-6.60124"
         fill="none"
         stroke="#000000"
         stroke-width="1.5"
         stroke-linecap="round"
         stroke-linejoin="miter"
         id="path254" />
      <path
         d="M289.4517,152.43884c0,0 -3.67176,-0.55772 -5.39786,-1.41838c-1.84824,-0.92151 -5.35031,-3.94058 -5.35031,-3.94058"
         fill="none"
         stroke="#000000"
         stroke-width="1.5"
         stroke-linecap="round"
         stroke-linejoin="miter"
         id="path256" />
      <path
         d="M286.27649,154.28099c0,0 0.26031,-3.07453 1.42321,-5.8284c0.98417,-2.33066 2.76877,-4.31201 4.00005,-5.24024c0.85603,-0.64537 2.64141,-1.45515 4.11976,-1.67815c3.40715,-0.51403 7.02438,0.25681 7.02438,0.25681"
         fill="none"
         stroke="#000000"
         stroke-width="1.5"
         stroke-linecap="round"
         stroke-linejoin="miter"
         id="path258" />
      <path
         d="M217.68824,132.39664c0,0 13.22544,-7.10483 19.64796,-7.53095c6.3952,-0.42431 18.80554,4.97967 18.80554,4.97967l-6.28392,35.33422c0,0 -11.30793,-4.45005 -17.36597,-3.91688c-6.25367,0.55039 -19.02486,7.29784 -19.02486,7.29784z"
         fill="none"
         stroke="#000000"
         stroke-width="1.5"
         stroke-linecap="round"
         stroke-linejoin="miter"
         id="path260" />
      <path
         d="M300.67351,122.9407c0,0 -13.22544,7.10483 -19.64796,7.53095c-6.3952,0.42431 -20.77246,-3.79951 -20.77246,-3.79951l5.89053,-34.54745c0,0 10.12778,3.26989 16.18581,2.73673c6.25367,-0.55039 22.17194,-6.90445 22.17194,-6.90445z"
         data-paper-data="{&quot;index&quot;:null}"
         fill="none"
         stroke="#000000"
         stroke-width="1.5"
         stroke-linecap="round"
         stroke-linejoin="miter"
         id="path262" />
      <path
         d="M281.54294,150.96431c0,0 0.12709,-2.31497 1.04664,-4.86765c1.14058,-3.16612 3.25072,-6.82095 4.90427,-8.33041c1.23579,-1.12815 3.51099,-2.34912 5.72851,-2.85472c3.24977,-0.74103 6.42456,-0.474 6.42456,-0.474"
         fill="none"
         stroke="#000000"
         stroke-width="1.5"
         stroke-linecap="round"
         stroke-linejoin="miter"
         id="path264" />
      <path
         d="M278.44816,142.50585c0,0 4.22319,-5.31977 7.62439,-8.02401c3.40115,-2.70423 7.44176,-3.9548 7.44176,-3.9548"
         fill="none"
         stroke="#000000"
         stroke-width="1.5"
         stroke-linecap="round"
         stroke-linejoin="miter"
         id="path266" />
      <path
         d="M303.68271,147.39237c-0.02621,0.28316 -3.33063,-0.79581 -6.73647,1.30145c-3.62797,2.23403 -5.81249,8.61422 -5.78455,8.31259c0.01464,-0.15864 -3.36372,0.62912 -3.20136,-0.6097c0.12414,-0.94739 2.11656,-4.78275 2.74838,-5.83605c0.58244,-0.97095 1.62501,-2.25247 2.77826,-3.2446c0.91876,-0.79048 2.62473,-2.11028 4.7228,-2.73795c2.44539,-0.73151 4.80289,-0.93237 5.11103,-0.81957c1.94344,0.71152 0.40372,3.1821 0.36191,3.63383z"
         fill="#465e85"
         stroke="#000000"
         stroke-width="1.5"
         stroke-linecap="butt"
         stroke-linejoin="miter"
         id="path268" />
      <path
         d="M288.01262,155.6836c-6.09491,-1.48208 -10.5347,-7.32333 -9.93279,-13.82967c0.66097,-7.14481 7.30407,-12.37185 14.36356,-11.71878c6.62215,0.61261 11.54551,6.76543 11.59098,13.35439c0.00162,0.23579 -5.74333,-0.19713 -9.94983,3.18483c-3.55781,2.86044 -5.7978,9.07587 -6.07187,9.00923z"
         fill="none"
         stroke="#000000"
         stroke-width="1.5"
         stroke-linecap="butt"
         stroke-linejoin="miter"
         id="path270" />
      <path
         d="M290.51793,130.43558c0,0 4.4741,4.30913 5.57818,6.56254c1.14987,2.34706 1.18922,7.25034 1.18922,7.25034"
         fill="none"
         stroke="#000000"
         stroke-width="1.5"
         stroke-linecap="round"
         stroke-linejoin="miter"
         id="path272" />
      <path
         d="M292.50565,151.54732c0.3403,0.3557 0.22296,1.02025 -0.2621,1.4843c-0.48505,0.46405 -1.15414,0.55188 -1.49444,0.19617c-0.3403,-0.35571 -0.22295,-1.02025 0.26211,-1.4843c0.48506,-0.46405 1.15414,-0.55187 1.49444,-0.19617z"
         fill="#6283b8"
         stroke="none"
         stroke-width="1.5"
         stroke-linecap="butt"
         stroke-linejoin="miter"
         id="path274" />
      <path
         d="M295.193,147.92221c0.53151,0.17529 0.48766,0.78426 -0.09791,1.36019c-0.58557,0.57592 -1.49114,0.9007 -2.02264,0.72541c-0.53151,-0.17529 -0.48767,-0.78426 0.0979,-1.36018c0.58557,-0.57592 1.49114,-0.9007 2.02264,-0.72541z"
         fill="#6283b8"
         stroke="none"
         stroke-width="1.5"
         stroke-linecap="butt"
         stroke-linejoin="miter"
         id="path276" />
    </g>
  </g>
</svg>
