<?xml version="1.0" encoding="UTF-8" standalone="no"?>
<svg
   version="1.1"
   width="123.41852"
   height="93.53134"
   viewBox="0,0,123.41852,93.53134"
   id="svg282"
   sodipodi:docname="idle0.svg"
   inkscape:version="1.1 (c68e22c387, 2021-05-23)"
   xmlns:inkscape="http://www.inkscape.org/namespaces/inkscape"
   xmlns:sodipodi="http://sodipodi.sourceforge.net/DTD/sodipodi-0.dtd"
   xmlns="http://www.w3.org/2000/svg"
   xmlns:svg="http://www.w3.org/2000/svg">
  <defs
     id="defs286" />
  <sodipodi:namedview
     id="namedview284"
     pagecolor="#505050"
     bordercolor="#ffffff"
     borderopacity="1"
     inkscape:pageshadow="0"
     inkscape:pageopacity="0"
     inkscape:pagecheckerboard="1"
     showgrid="false"
     inkscape:zoom="8.8098811"
     inkscape:cx="61.748847"
     inkscape:cy="46.822425"
     inkscape:window-width="2560"
     inkscape:window-height="1009"
     inkscape:window-x="-8"
     inkscape:window-y="-8"
     inkscape:window-maximized="1"
     inkscape:current-layer="svg282" />
  <g
     transform="translate(-212.84603,-82.60903)"
     id="g280">
    <g
       data-paper-data="{&quot;isPaintingLayer&quot;:true}"
       fill-rule="nonzero"
       stroke-miterlimit="10"
       stroke-dasharray=""
       stroke-dashoffset="0"
       style="mix-blend-mode: normal"
       id="g278">
      <g
         stroke-width="1"
         id="g36">
        <g
           id="g32">
          <g
             id="g14">
            <path
               d=""
               fill="#c38f4e"
               stroke="none"
               stroke-linecap="butt"
               stroke-linejoin="miter"
               id="path4" />
            <path
               d=""
               fill="none"
               stroke="#000000"
               stroke-linecap="round"
               stroke-linejoin="round"
               id="path6" />
            <path
               d=""
               fill="none"
               stroke="#000000"
               stroke-linecap="round"
               stroke-linejoin="round"
               id="path8" />
            <path
               d=""
               fill="none"
               stroke="#000000"
               stroke-linecap="round"
               stroke-linejoin="round"
               id="path10" />
            <path
               d=""
               fill="none"
               stroke="#000000"
               stroke-linecap="round"
               stroke-linejoin="round"
               id="path12" />
          </g>
          <g
             stroke-linejoin="miter"
             id="g22">
            <path
               d=""
               fill="#c38f4e"
               stroke="none"
               stroke-linecap="butt"
               id="path16" />
            <path
               d=""
               fill="none"
               stroke="#000000"
               stroke-linecap="round"
               id="path18" />
            <path
               d=""
               fill="none"
               stroke="#000000"
               stroke-linecap="round"
               id="path20" />
          </g>
          <g
             stroke-linejoin="miter"
             id="g30">
            <path
               d=""
               fill="#c38f4e"
               stroke="none"
               stroke-linecap="butt"
               id="path24" />
            <path
               d=""
               fill="none"
               stroke="#000000"
               stroke-linecap="round"
               id="path26" />
            <path
               d=""
               fill="none"
               stroke="#000000"
               stroke-linecap="round"
               id="path28" />
          </g>
        </g>
        <path
           d=""
           fill="#2c96ff"
           stroke="#000000"
           stroke-linecap="round"
           stroke-linejoin="round"
           id="path34" />
      </g>
      <path
         d=""
         fill="#c38f4e"
         stroke="#000000"
         stroke-width="1"
         stroke-linecap="butt"
         stroke-linejoin="miter"
         id="path38" />
      <path
         d=""
         fill="#c38f4e"
         stroke="#000000"
         stroke-width="1"
         stroke-linecap="round"
         stroke-linejoin="miter"
         id="path40" />
      <g
         stroke-width="1"
         id="g106">
        <g
           stroke-linejoin="miter"
           id="g62">
          <g
             id="g46">
            <path
               d=""
               fill="#c38f4e"
               stroke="none"
               stroke-linecap="butt"
               id="path42" />
            <path
               d=""
               fill="none"
               stroke="#000000"
               stroke-linecap="round"
               id="path44" />
          </g>
          <g
             id="g54">
            <path
               d=""
               fill="#c38f4e"
               stroke="none"
               stroke-linecap="butt"
               id="path48" />
            <path
               d=""
               fill="none"
               stroke="#000000"
               stroke-linecap="round"
               id="path50" />
            <path
               d=""
               fill="none"
               stroke="#000000"
               stroke-linecap="round"
               id="path52" />
          </g>
          <g
             id="g60">
            <path
               d=""
               fill="#c38f4e"
               stroke="none"
               stroke-linecap="butt"
               id="path56" />
            <path
               d=""
               fill="none"
               stroke="#000000"
               stroke-linecap="round"
               id="path58" />
          </g>
        </g>
        <path
           d=""
           fill="#ccd8ff"
           stroke="#000000"
           stroke-linecap="round"
           stroke-linejoin="miter"
           id="path64" />
        <path
           d=""
           fill="#333333"
           stroke="#000000"
           stroke-linecap="round"
           stroke-linejoin="miter"
           id="path66" />
        <g
           id="g104">
          <path
             d=""
             fill="#ba0000"
             stroke="#000000"
             stroke-linecap="round"
             stroke-linejoin="miter"
             id="path68" />
          <path
             d=""
             fill="#7a0000"
             stroke="#000000"
             stroke-linecap="round"
             stroke-linejoin="miter"
             id="path70" />
          <path
             d=""
             fill="#7a0000"
             stroke="#000000"
             stroke-linecap="round"
             stroke-linejoin="miter"
             id="path72" />
          <path
             d=""
             fill="#ffffff"
             stroke="#000000"
             stroke-linecap="round"
             stroke-linejoin="round"
             id="path74" />
          <path
             d=""
             fill="#ffffff"
             stroke="#000000"
             stroke-linecap="round"
             stroke-linejoin="round"
             id="path76" />
          <path
             d=""
             fill="#ffffff"
             stroke="#000000"
             stroke-linecap="round"
             stroke-linejoin="round"
             id="path78" />
          <g
             stroke-linecap="butt"
             stroke-linejoin="miter"
             id="g102">
            <g
               fill="#000000"
               stroke="none"
               id="g92">
              <path
                 d=""
                 id="path80" />
              <path
                 d=""
                 id="path82" />
              <path
                 d=""
                 id="path84" />
              <path
                 d=""
                 id="path86" />
              <path
                 d=""
                 id="path88" />
              <path
                 d=""
                 id="path90" />
            </g>
            <g
               fill="none"
               stroke="#ffffff"
               id="g100">
              <path
                 d=""
                 id="path94" />
              <path
                 d=""
                 id="path96" />
              <path
                 d=""
                 id="path98" />
            </g>
          </g>
        </g>
      </g>
      <g
         stroke-width="1"
         id="g172">
        <g
           stroke-linejoin="miter"
           id="g128">
          <g
             id="g112">
            <path
               d=""
               fill="#c38f4e"
               stroke="none"
               stroke-linecap="butt"
               id="path108" />
            <path
               d=""
               fill="none"
               stroke="#000000"
               stroke-linecap="round"
               id="path110" />
          </g>
          <g
             id="g120">
            <path
               d=""
               fill="#c38f4e"
               stroke="none"
               stroke-linecap="butt"
               id="path114" />
            <path
               d=""
               fill="none"
               stroke="#000000"
               stroke-linecap="round"
               id="path116" />
            <path
               d=""
               fill="none"
               stroke="#000000"
               stroke-linecap="round"
               id="path118" />
          </g>
          <g
             id="g126">
            <path
               d=""
               fill="#c38f4e"
               stroke="none"
               stroke-linecap="butt"
               id="path122" />
            <path
               d=""
               fill="none"
               stroke="#000000"
               stroke-linecap="round"
               id="path124" />
          </g>
        </g>
        <path
           d=""
           fill="#ccd8ff"
           stroke="#000000"
           stroke-linecap="round"
           stroke-linejoin="miter"
           id="path130" />
        <path
           d=""
           fill="#333333"
           stroke="#000000"
           stroke-linecap="round"
           stroke-linejoin="miter"
           id="path132" />
        <g
           id="g170">
          <path
             d=""
             fill="#ba0000"
             stroke="#000000"
             stroke-linecap="round"
             stroke-linejoin="miter"
             id="path134" />
          <path
             d=""
             fill="#7a0000"
             stroke="#000000"
             stroke-linecap="round"
             stroke-linejoin="miter"
             id="path136" />
          <path
             d=""
             fill="#7a0000"
             stroke="#000000"
             stroke-linecap="round"
             stroke-linejoin="miter"
             id="path138" />
          <path
             d=""
             fill="#ffffff"
             stroke="#000000"
             stroke-linecap="round"
             stroke-linejoin="round"
             id="path140" />
          <path
             d=""
             fill="#ffffff"
             stroke="#000000"
             stroke-linecap="round"
             stroke-linejoin="round"
             id="path142" />
          <path
             d=""
             fill="#ffffff"
             stroke="#000000"
             stroke-linecap="round"
             stroke-linejoin="round"
             id="path144" />
          <g
             stroke-linecap="butt"
             stroke-linejoin="miter"
             id="g168">
            <g
               fill="#000000"
               stroke="none"
               id="g158">
              <path
                 d=""
                 id="path146" />
              <path
                 d=""
                 id="path148" />
              <path
                 d=""
                 id="path150" />
              <path
                 d=""
                 id="path152" />
              <path
                 d=""
                 id="path154" />
              <path
                 d=""
                 id="path156" />
            </g>
            <g
               fill="none"
               stroke="#ffffff"
               id="g166">
              <path
                 d=""
                 id="path160" />
              <path
                 d=""
                 id="path162" />
              <path
                 d=""
                 id="path164" />
            </g>
          </g>
        </g>
      </g>
      <path
         d="M234.41293,88.01238c0,0 13.93641,-5.09098 20.29225,-4.62294c6.3288,0.46604 17.762,7.42518 17.762,7.42518l-10.64306,34.22852c0,0 -10.73643,-5.85429 -16.74944,-6.16817c-6.20719,-0.32401 -19.92969,4.25353 -19.92969,4.25353z"
         fill="none"
         stroke="#000000"
         stroke-width="1.5"
         stroke-linecap="round"
         stroke-linejoin="miter"
         id="path174" />
      <path
         d="M305.67676,131.62735c0,0 -12.67703,4.47359 -19.35059,4.03236c-6.64517,-0.43935 -20.60596,-6.67409 -20.60596,-6.67409l11.32633,-34.5007c0,0 11.35574,6.86514 17.66989,7.15282c6.51806,0.29697 20.8462,-5.39801 20.8462,-5.39801z"
         fill="none"
         stroke="#000000"
         stroke-width="1.5"
         stroke-linecap="round"
         stroke-linejoin="miter"
         id="path176" />
      <path
         d="M222.99744,128.37323c0,0 13.93641,-5.09098 20.29224,-4.62295c6.3288,0.46604 17.76199,7.42518 17.76199,7.42518l-10.97509,33.49157c0,0 -10.48214,-5.8802 -16.49516,-6.19408c-6.20719,-0.32401 -19.64948,4.48189 -19.64948,4.48189z"
         fill="none"
         stroke="#000000"
         stroke-width="1.5"
         stroke-linecap="round"
         stroke-linejoin="miter"
         id="path178" />
      <path
         d="M294.57998,170.38261c0,0 -12.67702,4.47358 -19.35057,4.03236c-6.64517,-0.43935 -20.60597,-6.67408 -20.60597,-6.67408l11.32634,-34.5007c0,0 11.35574,6.86514 17.6699,7.15282c6.51806,0.29697 20.8462,-5.398 20.8462,-5.398z"
         fill="none"
         stroke="#000000"
         stroke-width="1.5"
         stroke-linecap="round"
         stroke-linejoin="miter"
         id="path180" />
      <g
         stroke="#000000"
         stroke-width="1"
         id="g200">
        <path
           d=""
           fill="#78c2ff"
           stroke-linecap="round"
           stroke-linejoin="round"
           id="path182" />
        <path
           d=""
           fill="#2c96ff"
           stroke-linecap="round"
           stroke-linejoin="round"
           id="path184" />
        <path
           d=""
           fill="#2c96ff"
           stroke-linecap="round"
           stroke-linejoin="round"
           id="path186" />
        <path
           d=""
           fill="none"
           stroke-linecap="round"
           stroke-linejoin="miter"
           id="path188" />
        <path
           d=""
           fill="none"
           stroke-linecap="butt"
           stroke-linejoin="miter"
           id="path190" />
        <path
           d=""
           fill="none"
           stroke-linecap="butt"
           stroke-linejoin="miter"
           id="path192" />
        <path
           d=""
           fill="none"
           stroke-linecap="butt"
           stroke-linejoin="miter"
           id="path194" />
        <path
           d=""
           fill="none"
           stroke-linecap="butt"
           stroke-linejoin="miter"
           id="path196" />
        <path
           d=""
           fill="none"
           stroke-linecap="butt"
           stroke-linejoin="miter"
           id="path198" />
      </g>
      <g
         stroke-width="1"
         id="g234">
        <g
           stroke-linecap="butt"
           stroke-linejoin="miter"
           id="g214">
          <path
             d=""
             fill="#c38f4e"
             stroke="none"
             id="path202" />
          <g
             fill="none"
             stroke="#000000"
             id="g212">
            <path
               d=""
               id="path204" />
            <path
               d=""
               id="path206" />
            <path
               d=""
               id="path208" />
            <path
               d=""
               id="path210" />
          </g>
        </g>
        <g
           stroke-linejoin="miter"
           id="g222">
          <path
             d=""
             fill="#c38f4e"
             stroke="none"
             stroke-linecap="butt"
             id="path216" />
          <path
             d=""
             fill="none"
             stroke="#000000"
             stroke-linecap="round"
             id="path218" />
          <path
             d=""
             fill="none"
             stroke="#000000"
             stroke-linecap="round"
             id="path220" />
        </g>
        <g
           stroke-linejoin="miter"
           id="g230">
          <path
             d=""
             fill="#c38f4e"
             stroke="none"
             stroke-linecap="butt"
             id="path224" />
          <path
             d=""
             fill="none"
             stroke="#000000"
             stroke-linecap="round"
             id="path226" />
          <path
             d=""
             fill="none"
             stroke="#000000"
             stroke-linecap="round"
             id="path228" />
        </g>
        <path
           d=""
           fill="#2c96ff"
           stroke="#000000"
           stroke-linecap="round"
           stroke-linejoin="round"
           id="path232" />
      </g>
      <path
         d="M260.64903,110.36923c0,-4.57403 1.35831,-5.84329 1.35831,-5.84329l16.07807,2.008c0,0 1.25523,0.61149 1.25523,3.83528c0,7.4706 -4.18426,13.52672 -9.3458,13.52672c-5.16154,0 -9.3458,-6.05611 -9.3458,-13.52672z"
         fill="#ffffff"
         stroke="#000000"
         stroke-width="1"
         stroke-linecap="butt"
         stroke-linejoin="miter"
         id="path236" />
      <path
         d="M282.85373,110.99614c0,-2.96444 1.08901,-4.77405 1.08901,-4.77405l15.27447,-1.88605c0,0 2.32813,2.25796 2.32813,6.66009c0,7.4706 -4.18426,13.52672 -9.3458,13.52672c-5.16154,0 -9.34581,-6.05611 -9.34581,-13.52672z"
         fill="#ffffff"
         stroke="#000000"
         stroke-width="1"
         stroke-linecap="butt"
         stroke-linejoin="miter"
         id="path238" />
      <path
         d="M269.71995,132.98878c0,0 7.49566,2.40353 12.81,2.02482c0.73333,-0.18001 3.66818,-2.12287 4.07484,-2.244c1.20105,-0.35776 1.66932,-2.39214 1.66932,-2.39214c0,0 3.55541,5.52149 -2.06157,5.52149c-5.61698,0 -16.49259,-2.91017 -16.49259,-2.91017z"
         fill="#ffffff"
         stroke="#000000"
         stroke-width="1"
         stroke-linecap="butt"
         stroke-linejoin="miter"
         id="path240" />
      <path
         d="M331.73046,145.39034c-3.17239,6.43597 -10.89916,9.11229 -17.25828,5.97778c-6.35907,-3.1345 -8.94241,-10.89283 -5.77002,-17.3288c3.17238,-6.43593 10.89916,-9.11229 17.25824,-5.97779c6.35912,3.13451 8.94245,10.89289 5.77007,17.32881z"
         fill="#465e85"
         stroke="#000000"
         stroke-width="1.5"
         stroke-linecap="butt"
         stroke-linejoin="miter"
         id="path242" />
      <path
         d="M329.64095,150.35001c-0.0477,0.09681 -3.59921,1.63912 -6.68256,2.37369c-2.72739,0.6498 -5.0362,0.51388 -4.99124,0.4227c0.05038,-0.1022 -2.64982,-0.5598 -2.22117,-1.34373c0.32789,-0.59957 2.75932,-2.59167 3.48977,-3.11407c0.67336,-0.48149 1.76513,-1.03711 2.86686,-1.36626c0.87778,-0.26221 2.47077,-0.64986 4.18216,-0.45858c1.9946,0.22295 3.79199,0.77641 3.99238,0.94211c1.26343,1.04477 -0.49279,2.25321 -0.6362,2.54415z"
         fill="#0d1522"
         stroke="#000000"
         stroke-width="1.5"
         stroke-linecap="butt"
         stroke-linejoin="miter"
         id="path244" />
      <path
         d="M318.60871,134.40457c-0.02314,0.64274 -0.70971,1.13755 -1.53349,1.10519c-0.82377,-0.03236 -1.47281,-0.57963 -1.44967,-1.22237c0.02314,-0.64274 0.70971,-1.13756 1.53348,-1.1052c0.82377,0.03236 1.47281,0.57963 1.44967,1.22238z"
         fill="#6283b8"
         stroke="none"
         stroke-width="1.5"
         stroke-linecap="butt"
         stroke-linejoin="miter"
         id="path246" />
      <path
         d="M316.14061,131.23541c0.06784,0.77384 -0.72391,1.47195 -1.76844,1.55928c-1.04452,0.08733 -1.94627,-0.46919 -2.01411,-1.24303c-0.06784,-0.77384 0.72391,-1.47195 1.76843,-1.55929c1.04452,-0.08733 1.94627,0.4692 2.01412,1.24303z"
         fill="#6283b8"
         stroke="none"
         stroke-width="1.5"
         stroke-linecap="butt"
         stroke-linejoin="miter"
         id="path248" />
      <path
         d="M308.45691,145.32607c0,0 -1.69804,-3.03898 -1.78126,-4.77785c-0.08182,-1.70973 1.28605,-5.56944 1.28605,-5.56944c0,0 5.93436,3.29537 9.37348,4.57345c3.87536,1.44019 12.72661,3.63961 12.72661,3.63961c0,0 0.42435,1.15788 -0.38101,1.5155c-2.49591,1.10831 -16.56345,6.00873 -16.56345,6.00873z"
         fill="#313243"
         stroke="none"
         stroke-width="1.5"
         stroke-linecap="butt"
         stroke-linejoin="miter"
         id="path250" />
      <path
         d="M317.8841,127.29229c0,0 2.39015,5.43419 3.03547,8.21156c0.6531,2.8108 0.86001,8.55408 0.86001,8.55408"
         fill="none"
         stroke="#000000"
         stroke-width="1.5"
         stroke-linecap="round"
         stroke-linejoin="miter"
         id="path252" />
      <path
         d="M318.98037,145.15238c0,0 -2.95896,-4.12197 -3.74138,-6.91567c-0.80257,-2.86571 -1.01507,-10.06814 -1.01507,-10.06814"
         fill="none"
         stroke="#000000"
         stroke-width="1.5"
         stroke-linecap="round"
         stroke-linejoin="miter"
         id="path254" />
      <path
         d="M335.51455,171.72307c-1.30094,3.29624 -5.16295,4.28936 -8.59904,3.30427c-3.43614,-0.9851 -11.32383,-20.20748 -10.02291,-23.50367c1.30099,-3.29623 7.54588,-5.17973 10.98197,-4.19464c3.43608,0.98509 8.9409,21.09785 7.63998,24.39404z"
         fill="#465e85"
         stroke="#000000"
         stroke-width="1.5"
         stroke-linecap="butt"
         stroke-linejoin="miter"
         id="path256" />
      <path
         d="M317.25127,146.25887c0,0 -3.11291,-2.47151 -4.40292,-4.56974c-1.37254,-2.23248 -3.60003,-8.44732 -3.60003,-8.44732"
         fill="none"
         stroke="#000000"
         stroke-width="1.5"
         stroke-linecap="round"
         stroke-linejoin="miter"
         id="path258" />
      <path
         d="M315.1903,147.82032c0,0 -3.22948,-1.83393 -4.53364,-3.25496c-1.39646,-1.52154 -3.58725,-5.59336 -3.58725,-5.59336"
         fill="none"
         stroke="#000000"
         stroke-width="1.5"
         stroke-linecap="round"
         stroke-linejoin="miter"
         id="path260" />
      <path
         d="M311.56629,148.40514c0,0 1.34261,-2.77812 3.41344,-4.93399c1.75258,-1.82457 4.12773,-3.03668 5.60954,-3.46319c1.03022,-0.29656 2.98711,-0.41429 4.44744,-0.09386c3.36565,0.73843 6.468,2.75188 6.468,2.75188"
         fill="none"
         stroke="#000000"
         stroke-width="1.5"
         stroke-linecap="round"
         stroke-linejoin="miter"
         id="path262" />
      <path
         d="M308.33189,143.61497c0,0 0.94657,-2.11643 2.7182,-4.17144c2.19742,-2.54884 5.47504,-5.20733 7.55905,-6.02563c1.55751,-0.6116 4.11889,-0.93816 6.37057,-0.61729c3.29986,0.47016 6.1692,1.85489 6.1692,1.85489"
         fill="none"
         stroke="#000000"
         stroke-width="1.5"
         stroke-linecap="round"
         stroke-linejoin="miter"
         id="path264" />
      <path
         d="M308.46671,134.60914c0,0 5.84635,-3.45766 9.98971,-4.76672c4.14331,-1.30907 8.36394,-1.03194 8.36394,-1.03194"
         fill="none"
         stroke="#000000"
         stroke-width="1.5"
         stroke-linecap="round"
         stroke-linejoin="miter"
         id="path266" />
      <path
         d="M330.2849,148.19688c-0.12574,0.25506 -2.82577,-1.93428 -6.7564,-1.19371c-4.18697,0.78885 -8.50871,5.96587 -8.37475,5.69418c0.07041,-0.14292 -3.36626,-0.61542 -2.77161,-1.71425c0.45474,-0.84034 3.687,-3.70953 4.65372,-4.46722c0.89116,-0.69844 2.32307,-1.52237 3.75486,-2.03646c1.1407,-0.40964 3.20583,-1.03206 5.38961,-0.86792c2.54527,0.19138 4.81869,0.8469 5.06612,1.06244c1.56046,1.35948 -0.76096,3.11604 -0.96155,3.52294z"
         fill="#465e85"
         stroke="#000000"
         stroke-width="1.5"
         stroke-linecap="butt"
         stroke-linejoin="miter"
         id="path268" />
      <path
         d="M312.686,150.33585c-5.16181,-3.56373 -7.21903,-10.60644 -4.33014,-16.46724c3.17238,-6.43593 11.24545,-8.94158 17.60453,-5.80708c5.96513,2.94031 8.36252,10.44691 6.04863,16.61639c-0.08281,0.22078 -5.293,-2.23802 -10.43078,-0.58405c-4.34547,1.39892 -8.66009,6.40225 -8.8922,6.242z"
         fill="none"
         stroke="#000000"
         stroke-width="1.5"
         stroke-linecap="butt"
         stroke-linejoin="miter"
         id="path270" />
      <path
         d="M324.05483,127.65351c0,0 2.63718,5.62418 2.86238,8.1234c0.23448,2.60306 -1.48229,7.19615 -1.48229,7.19615"
         fill="none"
         stroke="#000000"
         stroke-width="1.5"
         stroke-linecap="round"
         stroke-linejoin="miter"
         id="path272" />
      <path
         d="M318.36114,148.07992c0.19059,0.45388 -0.15665,1.03251 -0.77559,1.2924c-0.61893,0.2599 -1.27517,0.10264 -1.46576,-0.35124c-0.19059,-0.45388 0.15665,-1.03251 0.77559,-1.29241c0.61893,-0.2599 1.27517,-0.10263 1.46576,0.35124z"
         fill="#6283b8"
         stroke="none"
         stroke-width="1.5"
         stroke-linecap="butt"
         stroke-linejoin="miter"
         id="path274" />
      <path
         d="M322.16718,145.65559c0.43367,0.35377 0.17494,0.9068 -0.57786,1.23522c-0.75281,0.32842 -1.71463,0.30787 -2.1483,-0.0459c-0.43367,-0.35377 -0.17495,-0.9068 0.57786,-1.23522c0.75281,-0.32842 1.71464,-0.30787 2.1483,0.0459z"
         fill="#6283b8"
         stroke="none"
         stroke-width="1.5"
         stroke-linecap="butt"
         stroke-linejoin="miter"
         id="path276" />
    </g>
  </g>
</svg>
