<?xml version="1.0" encoding="UTF-8" standalone="no"?>
<svg
   version="1.1"
   width="32"
   height="32"
   viewBox="0 0 32 32"
   id="svg6"
   sodipodi:docname="Cib-tiktok_(CoreUI_Icons_v1.0.0).svg"
   inkscape:version="1.1 (c68e22c387, 2021-05-23)"
   xmlns:inkscape="http://www.inkscape.org/namespaces/inkscape"
   xmlns:sodipodi="http://sodipodi.sourceforge.net/DTD/sodipodi-0.dtd"
   xmlns="http://www.w3.org/2000/svg"
   xmlns:svg="http://www.w3.org/2000/svg"
   xmlns:rdf="http://www.w3.org/1999/02/22-rdf-syntax-ns#"
   xmlns:cc="http://creativecommons.org/ns#"
   xmlns:dc="http://purl.org/dc/elements/1.1/">
  <defs
     id="defs10" />
  <sodipodi:namedview
     id="namedview8"
     pagecolor="#505050"
     bordercolor="#ffffff"
     borderopacity="1"
     inkscape:pageshadow="0"
     inkscape:pageopacity="0"
     inkscape:pagecheckerboard="1"
     showgrid="false"
     inkscape:zoom="64"
     inkscape:cx="16.328125"
     inkscape:cy="6.3515625"
     inkscape:window-width="2560"
     inkscape:window-height="1009"
     inkscape:window-x="-8"
     inkscape:window-y="-8"
     inkscape:window-maximized="1"
     inkscape:current-layer="svg6" />
  <title
     id="title2">tiktok</title>
  <metadata
     id="metadata827">
    <rdf:RDF>
      <cc:Work
         rdf:about="">
        <dc:title>tiktok</dc:title>
      </cc:Work>
    </rdf:RDF>
  </metadata>
  <path
     style="fill:#ffffff;stroke-width:0.0625"
     d="M 10.866545,31.903894 C 9.49714,31.743981 7.9317645,31.172554 6.69971,30.382826 4.4782278,28.958892 2.8413254,26.560118 2.3077771,23.946735 2.1423672,23.136538 2.0792195,21.531274 2.1820242,20.75 c 0.5527904,-4.200986 3.6807276,-7.607728 7.8366748,-8.535186 0.932103,-0.208012 1.983065,-0.279181 2.858148,-0.193548 0.420053,0.0411 0.790822,0.09148 0.823932,0.111941 0.05047,0.0312 0.0078,5.760569 -0.04338,5.8213 -0.0079,0.0094 -0.194174,-0.02539 -0.413987,-0.0772 -0.507077,-0.119529 -1.582492,-0.12136 -2.13807,-0.0036 -1.2256171,0.259693 -2.4899553,1.272422 -3.0386692,2.433962 -0.3242309,0.686345 -0.392753,0.96975 -0.4260683,1.762207 -0.040102,0.953888 0.071167,1.497489 0.4693162,2.292831 0.2372592,0.473949 0.3857017,0.671482 0.8542454,1.136747 0.6236294,0.619267 1.0399259,0.89368 1.7336739,1.142798 0.592817,0.212875 1.836942,0.269695 2.504037,0.114362 1.137387,-0.264841 2.199552,-1.017782 2.833255,-2.008419 0.437598,-0.684076 0.538537,-0.991191 0.595107,-1.810653 0.02848,-0.4125 0.05948,-4.757812 0.06891,-9.65625 0.0094,-4.898437 0.02543,-9.8835933 0.03558,-11.0781245 L 16.753177,0.03125 h 2.55808 2.558079 l 0.02786,0.203125 c 0.138962,1.0130687 0.268307,1.6695884 0.427895,2.171875 0.482433,1.5184065 1.327718,2.7788028 2.447868,3.6499887 1.214773,0.9447782 2.513603,1.4844875 4.336414,1.8019313 L 29.875,7.9915044 v 2.6448726 2.644873 h -0.203508 c -0.402596,0 -1.797501,-0.187811 -2.499975,-0.336599 -1.470999,-0.311565 -3.06553,-0.959954 -4.327767,-1.759813 -0.309375,-0.196046 -0.59538,-0.369189 -0.635566,-0.384763 -0.05533,-0.02144 -0.08012,1.455864 -0.10213,6.085804 -0.03099,6.519762 -0.02365,6.358925 -0.347836,7.617603 -0.545724,2.118794 -1.898354,4.12398 -3.690457,5.470867 -0.701381,0.527135 -2.073316,1.251512 -2.817761,1.48777 -1.38953,0.44098 -3.000192,0.603307 -4.383455,0.441775 z"
     id="path903" />
</svg>
