<?xml version="1.0" encoding="UTF-8" standalone="no"?>
<svg
   version="1.1"
   width="116.78364"
   height="103.92428"
   viewBox="0,0,116.78364,103.92428"
   id="svg282"
   sodipodi:docname="right0.svg"
   inkscape:version="1.1 (c68e22c387, 2021-05-23)"
   xmlns:inkscape="http://www.inkscape.org/namespaces/inkscape"
   xmlns:sodipodi="http://sodipodi.sourceforge.net/DTD/sodipodi-0.dtd"
   xmlns="http://www.w3.org/2000/svg"
   xmlns:svg="http://www.w3.org/2000/svg">
  <defs
     id="defs286" />
  <sodipodi:namedview
     id="namedview284"
     pagecolor="#505050"
     bordercolor="#ffffff"
     borderopacity="1"
     inkscape:pageshadow="0"
     inkscape:pageopacity="0"
     inkscape:pagecheckerboard="1"
     showgrid="false"
     inkscape:zoom="7.9288499"
     inkscape:cx="58.394346"
     inkscape:cy="52.0252"
     inkscape:window-width="2560"
     inkscape:window-height="1009"
     inkscape:window-x="-8"
     inkscape:window-y="-8"
     inkscape:window-maximized="1"
     inkscape:current-layer="svg282" />
  <g
     transform="translate(-213.89478,-73.12167)"
     id="g280">
    <g
       data-paper-data="{&quot;isPaintingLayer&quot;:true}"
       fill-rule="nonzero"
       stroke-miterlimit="10"
       stroke-dasharray=""
       stroke-dashoffset="0"
       style="mix-blend-mode: normal"
       id="g278">
      <g
         stroke-width="1"
         id="g36">
        <g
           id="g32">
          <g
             id="g14">
            <path
               d=""
               fill="#c38f4e"
               stroke="none"
               stroke-linecap="butt"
               stroke-linejoin="miter"
               id="path4" />
            <path
               d=""
               fill="none"
               stroke="#000000"
               stroke-linecap="round"
               stroke-linejoin="round"
               id="path6" />
            <path
               d=""
               fill="none"
               stroke="#000000"
               stroke-linecap="round"
               stroke-linejoin="round"
               id="path8" />
            <path
               d=""
               fill="none"
               stroke="#000000"
               stroke-linecap="round"
               stroke-linejoin="round"
               id="path10" />
            <path
               d=""
               fill="none"
               stroke="#000000"
               stroke-linecap="round"
               stroke-linejoin="round"
               id="path12" />
          </g>
          <g
             stroke-linejoin="miter"
             id="g22">
            <path
               d=""
               fill="#c38f4e"
               stroke="none"
               stroke-linecap="butt"
               id="path16" />
            <path
               d=""
               fill="none"
               stroke="#000000"
               stroke-linecap="round"
               id="path18" />
            <path
               d=""
               fill="none"
               stroke="#000000"
               stroke-linecap="round"
               id="path20" />
          </g>
          <g
             stroke-linejoin="miter"
             id="g30">
            <path
               d=""
               fill="#c38f4e"
               stroke="none"
               stroke-linecap="butt"
               id="path24" />
            <path
               d=""
               fill="none"
               stroke="#000000"
               stroke-linecap="round"
               id="path26" />
            <path
               d=""
               fill="none"
               stroke="#000000"
               stroke-linecap="round"
               id="path28" />
          </g>
        </g>
        <path
           d=""
           fill="#2c96ff"
           stroke="#000000"
           stroke-linecap="round"
           stroke-linejoin="round"
           id="path34" />
      </g>
      <path
         d=""
         fill="#c38f4e"
         stroke="#000000"
         stroke-width="1"
         stroke-linecap="butt"
         stroke-linejoin="miter"
         id="path38" />
      <path
         d=""
         fill="#c38f4e"
         stroke="#000000"
         stroke-width="1"
         stroke-linecap="round"
         stroke-linejoin="miter"
         id="path40" />
      <g
         stroke-width="1"
         id="g106">
        <g
           stroke-linejoin="miter"
           id="g62">
          <g
             id="g46">
            <path
               d=""
               fill="#c38f4e"
               stroke="none"
               stroke-linecap="butt"
               id="path42" />
            <path
               d=""
               fill="none"
               stroke="#000000"
               stroke-linecap="round"
               id="path44" />
          </g>
          <g
             id="g54">
            <path
               d=""
               fill="#c38f4e"
               stroke="none"
               stroke-linecap="butt"
               id="path48" />
            <path
               d=""
               fill="none"
               stroke="#000000"
               stroke-linecap="round"
               id="path50" />
            <path
               d=""
               fill="none"
               stroke="#000000"
               stroke-linecap="round"
               id="path52" />
          </g>
          <g
             id="g60">
            <path
               d=""
               fill="#c38f4e"
               stroke="none"
               stroke-linecap="butt"
               id="path56" />
            <path
               d=""
               fill="none"
               stroke="#000000"
               stroke-linecap="round"
               id="path58" />
          </g>
        </g>
        <path
           d=""
           fill="#ccd8ff"
           stroke="#000000"
           stroke-linecap="round"
           stroke-linejoin="miter"
           id="path64" />
        <path
           d=""
           fill="#333333"
           stroke="#000000"
           stroke-linecap="round"
           stroke-linejoin="miter"
           id="path66" />
        <g
           id="g104">
          <path
             d=""
             fill="#ba0000"
             stroke="#000000"
             stroke-linecap="round"
             stroke-linejoin="miter"
             id="path68" />
          <path
             d=""
             fill="#7a0000"
             stroke="#000000"
             stroke-linecap="round"
             stroke-linejoin="miter"
             id="path70" />
          <path
             d=""
             fill="#7a0000"
             stroke="#000000"
             stroke-linecap="round"
             stroke-linejoin="miter"
             id="path72" />
          <path
             d=""
             fill="#ffffff"
             stroke="#000000"
             stroke-linecap="round"
             stroke-linejoin="round"
             id="path74" />
          <path
             d=""
             fill="#ffffff"
             stroke="#000000"
             stroke-linecap="round"
             stroke-linejoin="round"
             id="path76" />
          <path
             d=""
             fill="#ffffff"
             stroke="#000000"
             stroke-linecap="round"
             stroke-linejoin="round"
             id="path78" />
          <g
             stroke-linecap="butt"
             stroke-linejoin="miter"
             id="g102">
            <g
               fill="#000000"
               stroke="none"
               id="g92">
              <path
                 d=""
                 id="path80" />
              <path
                 d=""
                 id="path82" />
              <path
                 d=""
                 id="path84" />
              <path
                 d=""
                 id="path86" />
              <path
                 d=""
                 id="path88" />
              <path
                 d=""
                 id="path90" />
            </g>
            <g
               fill="none"
               stroke="#ffffff"
               id="g100">
              <path
                 d=""
                 id="path94" />
              <path
                 d=""
                 id="path96" />
              <path
                 d=""
                 id="path98" />
            </g>
          </g>
        </g>
      </g>
      <g
         stroke-width="1"
         id="g172">
        <g
           stroke-linejoin="miter"
           id="g128">
          <g
             id="g112">
            <path
               d=""
               fill="#c38f4e"
               stroke="none"
               stroke-linecap="butt"
               id="path108" />
            <path
               d=""
               fill="none"
               stroke="#000000"
               stroke-linecap="round"
               id="path110" />
          </g>
          <g
             id="g120">
            <path
               d=""
               fill="#c38f4e"
               stroke="none"
               stroke-linecap="butt"
               id="path114" />
            <path
               d=""
               fill="none"
               stroke="#000000"
               stroke-linecap="round"
               id="path116" />
            <path
               d=""
               fill="none"
               stroke="#000000"
               stroke-linecap="round"
               id="path118" />
          </g>
          <g
             id="g126">
            <path
               d=""
               fill="#c38f4e"
               stroke="none"
               stroke-linecap="butt"
               id="path122" />
            <path
               d=""
               fill="none"
               stroke="#000000"
               stroke-linecap="round"
               id="path124" />
          </g>
        </g>
        <path
           d=""
           fill="#ccd8ff"
           stroke="#000000"
           stroke-linecap="round"
           stroke-linejoin="miter"
           id="path130" />
        <path
           d=""
           fill="#333333"
           stroke="#000000"
           stroke-linecap="round"
           stroke-linejoin="miter"
           id="path132" />
        <g
           id="g170">
          <path
             d=""
             fill="#ba0000"
             stroke="#000000"
             stroke-linecap="round"
             stroke-linejoin="miter"
             id="path134" />
          <path
             d=""
             fill="#7a0000"
             stroke="#000000"
             stroke-linecap="round"
             stroke-linejoin="miter"
             id="path136" />
          <path
             d=""
             fill="#7a0000"
             stroke="#000000"
             stroke-linecap="round"
             stroke-linejoin="miter"
             id="path138" />
          <path
             d=""
             fill="#ffffff"
             stroke="#000000"
             stroke-linecap="round"
             stroke-linejoin="round"
             id="path140" />
          <path
             d=""
             fill="#ffffff"
             stroke="#000000"
             stroke-linecap="round"
             stroke-linejoin="round"
             id="path142" />
          <path
             d=""
             fill="#ffffff"
             stroke="#000000"
             stroke-linecap="round"
             stroke-linejoin="round"
             id="path144" />
          <g
             stroke-linecap="butt"
             stroke-linejoin="miter"
             id="g168">
            <g
               fill="#000000"
               stroke="none"
               id="g158">
              <path
                 d=""
                 id="path146" />
              <path
                 d=""
                 id="path148" />
              <path
                 d=""
                 id="path150" />
              <path
                 d=""
                 id="path152" />
              <path
                 d=""
                 id="path154" />
              <path
                 d=""
                 id="path156" />
            </g>
            <g
               fill="none"
               stroke="#ffffff"
               id="g166">
              <path
                 d=""
                 id="path160" />
              <path
                 d=""
                 id="path162" />
              <path
                 d=""
                 id="path164" />
            </g>
          </g>
        </g>
      </g>
      <g
         stroke="#000000"
         stroke-width="1"
         id="g192">
        <path
           d=""
           fill="#78c2ff"
           stroke-linecap="round"
           stroke-linejoin="round"
           id="path174" />
        <path
           d=""
           fill="#2c96ff"
           stroke-linecap="round"
           stroke-linejoin="round"
           id="path176" />
        <path
           d=""
           fill="#2c96ff"
           stroke-linecap="round"
           stroke-linejoin="round"
           id="path178" />
        <path
           d=""
           fill="none"
           stroke-linecap="round"
           stroke-linejoin="miter"
           id="path180" />
        <path
           d=""
           fill="none"
           stroke-linecap="butt"
           stroke-linejoin="miter"
           id="path182" />
        <path
           d=""
           fill="none"
           stroke-linecap="butt"
           stroke-linejoin="miter"
           id="path184" />
        <path
           d=""
           fill="none"
           stroke-linecap="butt"
           stroke-linejoin="miter"
           id="path186" />
        <path
           d=""
           fill="none"
           stroke-linecap="butt"
           stroke-linejoin="miter"
           id="path188" />
        <path
           d=""
           fill="none"
           stroke-linecap="butt"
           stroke-linejoin="miter"
           id="path190" />
      </g>
      <path
         d="M235.66071,88.50983c0,0 13.09525,-6.97538 19.45455,-7.39373c6.33224,-0.41658 18.62042,4.88893 18.62042,4.88893l-5.79099,35.37416c0,0 -11.44485,-4.30801 -17.44325,-3.78457c-6.19211,0.54036 -19.14675,6.97759 -19.14675,6.97759z"
         fill="none"
         stroke="#000000"
         stroke-width="1.5"
         stroke-linecap="round"
         stroke-linejoin="miter"
         id="path194" />
      <path
         d="M312.28674,121.81525c0,0 -11.93372,6.18922 -18.60395,6.67821c-6.64185,0.48691 -21.33267,-3.75051 -21.33267,-3.75051l6.42989,-35.7385c0,0 12.19842,5.22316 18.49142,4.63198c6.49622,-0.61027 19.89562,-8.23815 19.89562,-8.23815z"
         fill="none"
         stroke="#000000"
         stroke-width="1.5"
         stroke-linecap="round"
         stroke-linejoin="miter"
         id="path196" />
      <path
         d="M229.95561,130.06418c0,0 13.09525,-6.97538 19.45455,-7.39373c6.33224,-0.41658 18.62042,4.88893 18.62042,4.88893l-6.22206,34.6904c0,0 -11.19662,-4.36896 -17.19502,-3.84551c-6.19211,0.54036 -18.83758,7.16486 -18.83758,7.16486z"
         fill="none"
         stroke="#000000"
         stroke-width="1.5"
         stroke-linecap="round"
         stroke-linejoin="miter"
         id="path198" />
      <path
         d="M306.6745,161.73531c0,0 -11.93371,6.18922 -18.60393,6.67821c-6.64185,0.48691 -21.33268,-3.7505 -21.33268,-3.7505l6.42989,-35.73851c0,0 12.19843,5.22317 18.49143,4.63198c6.49622,-0.61027 19.89562,-8.23815 19.89562,-8.23815z"
         fill="none"
         stroke="#000000"
         stroke-width="1.5"
         stroke-linecap="round"
         stroke-linejoin="miter"
         id="path200" />
      <g
         stroke-width="1"
         id="g234">
        <g
           stroke-linecap="butt"
           stroke-linejoin="miter"
           id="g214">
          <path
             d=""
             fill="#c38f4e"
             stroke="none"
             id="path202" />
          <g
             fill="none"
             stroke="#000000"
             id="g212">
            <path
               d=""
               id="path204" />
            <path
               d=""
               id="path206" />
            <path
               d=""
               id="path208" />
            <path
               d=""
               id="path210" />
          </g>
        </g>
        <g
           stroke-linejoin="miter"
           id="g222">
          <path
             d=""
             fill="#c38f4e"
             stroke="none"
             stroke-linecap="butt"
             id="path216" />
          <path
             d=""
             fill="none"
             stroke="#000000"
             stroke-linecap="round"
             id="path218" />
          <path
             d=""
             fill="none"
             stroke="#000000"
             stroke-linecap="round"
             id="path220" />
        </g>
        <g
           stroke-linejoin="miter"
           id="g230">
          <path
             d=""
             fill="#c38f4e"
             stroke="none"
             stroke-linecap="butt"
             id="path224" />
          <path
             d=""
             fill="none"
             stroke="#000000"
             stroke-linecap="round"
             id="path226" />
          <path
             d=""
             fill="none"
             stroke="#000000"
             stroke-linecap="round"
             id="path228" />
        </g>
        <path
           d=""
           fill="#2c96ff"
           stroke="#000000"
           stroke-linecap="round"
           stroke-linejoin="round"
           id="path232" />
      </g>
      <path
         d="M262.83275,110.63509c-0.32648,-4.56236 0.93777,-5.92534 0.93777,-5.92534l16.18039,0.85528c0,0 1.29567,0.52034 1.52578,3.7359c0.53323,7.45155 -3.2081,13.79088 -8.35647,14.15929c-5.14838,0.36841 -9.75423,-5.37359 -10.28745,-12.82515z"
         fill="#ffffff"
         stroke="#000000"
         stroke-width="1"
         stroke-linecap="butt"
         stroke-linejoin="miter"
         id="path236" />
      <path
         d="M285.02556,109.67551c-0.21159,-2.95688 0.74548,-4.8396 0.74548,-4.8396l15.10089,-2.97148c0,0 2.48336,2.08603 2.79757,6.47693c0.53323,7.45155 -3.2081,13.79088 -8.35647,14.15929c-5.14838,0.36841 -9.75424,-5.37359 -10.28746,-12.82515z"
         fill="#ffffff"
         stroke="#000000"
         stroke-width="1"
         stroke-linecap="butt"
         stroke-linejoin="miter"
         id="path238" />
      <path
         d="M275.30734,128.82247c0,0 1.9945,2.24647 7.78709,1.15372c3.59874,-0.6789 4.27306,-1.77921 4.74924,-2.03299c1.40636,-0.74953 4.64854,-4.82891 4.64854,-4.82891c0,0 0.07409,5.37817 -2.25569,9.64517c-1.5091,2.76391 -5.48442,3.08252 -7.62115,1.35941c-5.43549,-4.38332 -7.30802,-5.2964 -7.30802,-5.2964z"
         fill="#ff4444"
         stroke="#000000"
         stroke-width="1"
         stroke-linecap="butt"
         stroke-linejoin="miter"
         id="path240" />
      <path
         d="M315.34106,141.3582c-0.1493,7.1738 -6.01638,12.86968 -13.10453,12.72216c-7.0881,-0.14752 -12.7131,-6.08257 -12.5638,-13.25637c0.14931,-7.17376 6.01638,-12.86968 13.10448,-12.72216c7.08815,0.14752 12.71316,6.0826 12.56385,13.25637z"
         fill="#465e85"
         stroke="#000000"
         stroke-width="1.5"
         stroke-linecap="butt"
         stroke-linejoin="miter"
         id="path242" />
      <path
         d="M315.54781,146.7361c-0.00222,0.1079 -2.56679,3.00875 -5.04919,4.97961c-2.19581,1.74337 -4.34503,2.5977 -4.34291,2.49606c0.00237,-0.11392 -2.63762,0.61467 -2.58117,-0.277c0.04322,-0.682 1.40261,-3.51615 1.8432,-4.29866c0.40618,-0.72128 1.16007,-1.68687 2.01884,-2.4515c0.68422,-0.60917 1.96329,-1.63478 3.59472,-2.18603c1.90141,-0.64245 3.7641,-0.90199 4.01579,-0.83672c1.58693,0.41162 0.50748,2.24995 0.50073,2.57425z"
         fill="#0d1522"
         stroke="#000000"
         stroke-width="1.5"
         stroke-linecap="butt"
         stroke-linejoin="miter"
         id="path244" />
      <path
         d="M298.80231,136.96082c0.25115,0.59209 -0.16137,1.33104 -0.92137,1.65048c-0.76001,0.31944 -1.57969,0.09841 -1.83085,-0.49368c-0.25115,-0.59209 0.16137,-1.33104 0.92136,-1.65048c0.76001,-0.31944 1.5797,-0.09841 1.83086,0.49369z"
         fill="#6283b8"
         stroke="none"
         stroke-width="1.5"
         stroke-linecap="butt"
         stroke-linejoin="miter"
         id="path246" />
      <path
         d="M295.2246,135.13461c0.38908,0.67234 -0.03268,1.64001 -0.94199,2.16134c-0.90932,0.52133 -1.96187,0.39891 -2.35095,-0.27343c-0.38908,-0.67234 0.03266,-1.64 0.94197,-2.16134c0.90932,-0.52133 1.96188,-0.39891 2.35096,0.27343z"
         fill="#6283b8"
         stroke="none"
         stroke-width="1.5"
         stroke-linecap="butt"
         stroke-linejoin="miter"
         id="path248" />
      <path
         d="M294.22896,151.15318c0,0 -2.82495,-2.0343 -3.63651,-3.57442c-0.79797,-1.51431 -1.19279,-5.59015 -1.19279,-5.59015c0,0 6.77144,0.47309 10.42823,0.17498c4.12064,-0.33592 13.07068,-2.09065 13.07068,-2.09065c0,0 0.87465,0.86934 0.29644,1.53428c-1.79197,2.06076 -12.46194,12.45604 -12.46194,12.45604z"
         fill="#313243"
         stroke="none"
         stroke-width="1.5"
         stroke-linecap="butt"
         stroke-linejoin="miter"
         id="path250" />
      <path
         d="M295.13476,130.82414c0,0 4.46602,3.91126 6.22649,6.15423c1.78168,2.26998 4.40063,7.38556 4.40063,7.38556"
         fill="none"
         stroke="#000000"
         stroke-width="1.5"
         stroke-linecap="round"
         stroke-linejoin="miter"
         id="path252" />
      <path
         d="M303.68926,146.54056c0,0 -4.42579,-2.48162 -6.31738,-4.68136c-1.94035,-2.25644 -5.1821,-8.69159 -5.1821,-8.69159"
         fill="none"
         stroke="#000000"
         stroke-width="1.5"
         stroke-linecap="round"
         stroke-linejoin="miter"
         id="path254" />
      <path
         d="M329.91762,163.61255c0.21691,3.53703 -2.86146,6.0718 -6.39147,6.63406c-3.53006,0.56228 -18.81405,-13.51307 -19.03096,-17.05004c-0.21685,-3.53704 4.64335,-7.88728 8.17336,-8.44955c3.53,-0.56226 17.03216,15.32855 17.24907,18.86553z"
         fill="#465e85"
         stroke="#000000"
         stroke-width="1.5"
         stroke-linecap="butt"
         stroke-linejoin="miter"
         id="path256" />
      <path
         d="M302.59121,148.27504c0,0 -3.86651,-0.92119 -5.92353,-2.27596c-2.18862,-1.44145 -6.83777,-6.12882 -6.83777,-6.12882"
         fill="none"
         stroke="#000000"
         stroke-width="1.5"
         stroke-linecap="round"
         stroke-linejoin="miter"
         id="path258" />
      <path
         d="M301.38513,150.56218c0,0 -3.7022,-0.29422 -5.48533,-1.02948c-1.9093,-0.78724 -5.61793,-3.54864 -5.61793,-3.54864"
         fill="none"
         stroke="#000000"
         stroke-width="1.5"
         stroke-linecap="round"
         stroke-linejoin="miter"
         id="path260" />
      <path
         d="M298.3495,152.62628c0,0 0.0402,-3.08527 1.00357,-5.91512c0.81531,-2.39496 2.45393,-4.49864 3.61582,-5.51238c0.80778,-0.70482 2.53081,-1.63997 3.98947,-1.96792c3.36177,-0.75591 7.02479,-0.24522 7.02479,-0.24522"
         fill="none"
         stroke="#000000"
         stroke-width="1.5"
         stroke-linecap="round"
         stroke-linejoin="miter"
         id="path262" />
      <path
         d="M293.39129,149.6559c0,0 -0.03847,-2.31814 0.69653,-4.92994c0.91168,-3.23946 2.75557,-7.03558 4.29717,-8.65921c1.15211,-1.21348 3.33436,-2.59373 5.51014,-3.25632c3.18859,-0.9711 6.37434,-0.93135 6.37434,-0.93135"
         fill="none"
         stroke="#000000"
         stroke-width="1.5"
         stroke-linecap="round"
         stroke-linejoin="miter"
         id="path264" />
      <path
         d="M289.70067,141.43992c0,0 3.83271,-5.60764 7.03222,-8.54775c3.19946,-2.94009 7.1405,-4.47588 7.1405,-4.47588"
         fill="none"
         stroke="#000000"
         stroke-width="1.5"
         stroke-linecap="round"
         stroke-linejoin="miter"
         id="path266" />
      <path
         d="M315.21964,144.51281c-0.00593,0.28431 -3.37894,-0.55605 -6.6264,1.77896c-3.45926,2.48728 -5.18281,9.00712 -5.17647,8.70427c0.00328,-0.15928 -3.31024,0.86761 -3.23671,-0.37964c0.0562,-0.95383 1.76979,-4.92162 2.32481,-6.01733c0.51165,-1.01005 1.46009,-2.36271 2.53959,-3.43463c0.85999,-0.85404 2.46741,-2.29224 4.51533,-3.06806c2.38694,-0.90419 4.72409,-1.27281 5.0395,-1.18229c1.98927,0.57099 0.62982,3.14517 0.62036,3.59873z"
         fill="#465e85"
         stroke="#000000"
         stroke-width="1.5"
         stroke-linecap="butt"
         stroke-linejoin="miter"
         id="path268" />
      <path
         d="M300.18132,153.90138c-6.18515,-1.04327 -11.03054,-6.55272 -10.89457,-13.08543c0.14931,-7.17376 6.40238,-12.86163 13.49048,-12.71411c6.64899,0.13838 11.99896,5.9241 12.51461,12.49301c0.01845,0.23507 -5.74275,0.21331 -9.69713,3.88689c-3.34457,3.10709 -5.13521,9.46655 -5.41334,9.41964z"
         fill="none"
         stroke="#000000"
         stroke-width="1.5"
         stroke-linecap="butt"
         stroke-linejoin="miter"
         id="path270" />
      <path
         d="M300.87811,128.53894c0,0 4.77026,3.97879 6.03236,6.14765c1.31446,2.259 1.70369,7.14697 1.70369,7.14697"
         fill="none"
         stroke="#000000"
         stroke-width="1.5"
         stroke-linecap="round"
         stroke-linejoin="miter"
         id="path272" />
      <path
         d="M304.36765,149.45495c0.36482,0.3305 0.29521,1.00173 -0.15549,1.49922c-0.45069,0.49749 -1.11181,0.63285 -1.47663,0.30234c-0.36482,-0.33051 -0.2952,-1.00173 0.1555,-1.49922c0.4507,-0.49749 1.11181,-0.63284 1.47663,-0.30234z"
         fill="#6283b8"
         stroke="none"
         stroke-width="1.5"
         stroke-linecap="butt"
         stroke-linejoin="miter"
         id="path274" />
      <path
         d="M306.7894,145.64728c0.54267,0.13691 0.54239,0.74745 -0.00057,1.36371c-0.54297,0.61625 -1.42305,1.00484 -1.9657,0.86793c-0.54267,-0.13691 -0.5424,-0.74745 0.00057,-1.3637c0.54297,-0.61625 1.42305,-1.00484 1.9657,-0.86793z"
         fill="#6283b8"
         stroke="none"
         stroke-width="1.5"
         stroke-linecap="butt"
         stroke-linejoin="miter"
         id="path276" />
    </g>
  </g>
</svg>
